<svg xmlns="http://www.w3.org/2000/svg" xmlns:xlink="http://www.w3.org/1999/xlink" viewBox="0 0 904 289" role="img" aria-label="console2svg output">
<style>.crt{font-family:ui-monospace,"Cascadia Mono","Segoe UI Mono","SFMono-Regular",Menlo,monospace;font-size:14px;}text{dominant-baseline:alphabetic;}.bg{shape-rendering:crispEdges;}</style>
<defs>
<linearGradient id="desktop-bg" x1="0%" y1="0%" x2="100%" y2="100%"><stop offset="0%" stop-color="#30a0d0"/><stop offset="100%" stop-color="#0060c0"/></linearGradient>
</defs>
<rect width="904" height="289" fill="url(#desktop-bg)"/>
<g opacity="0.95">
<rect x="26" y="26" rx="10" ry="10" width="858" height="243" fill="black" fill-opacity="0.3"/>
<rect x="20.5" y="20.5" rx="10" ry="10" width="857" height="242" fill="#1f1f1f" stroke="#3a3a3a"/>
<rect x="21" y="21" rx="9" ry="9" width="856" height="27" fill="#2c2c2c"/>
<circle cx="34" cy="34" r="5" fill="#ff5f57"/>
<circle cx="50" cy="34" r="5" fill="#febc2e"/>
<circle cx="66" cy="34" r="5" fill="#28c840"/>
<rect x="29" y="56" width="840" height="18" fill="#1e1e1e"/>
<text class="crt" x="29" y="70" fill="#d4d4d4">$ oh-my-logo console2svg mint --filled --letter-spacing 0</text>
<g transform="translate(29 74)">
<rect width="840" height="180" fill="#1e1e1e"/>
<rect class="bg" x="8.4" y="36" width="8.4" height="18" fill="#01D1FF"/>
<rect class="bg" x="16.8" y="36" width="8.4" height="18" fill="#01D0FE"/>
<rect class="bg" x="25.2" y="36" width="8.4" height="18" fill="#02CFFE"/>
<rect class="bg" x="33.6" y="36" width="8.4" height="18" fill="#02CEFD"/>
<rect class="bg" x="42" y="36" width="8.4" height="18" fill="#03CDFD"/>
<rect class="bg" x="50.4" y="36" width="8.4" height="18" fill="#04CCFC"/>
<text class="crt" x="58.8" y="50" fill="#04CBFC" textLength="8.4" lengthAdjust="spacingAndGlyphs">╗</text>
<rect class="bg" x="75.6" y="36" width="8.4" height="18" fill="#06CAFB"/>
<rect class="bg" x="84" y="36" width="8.4" height="18" fill="#06C9FA"/>
<rect class="bg" x="92.4" y="36" width="8.4" height="18" fill="#07C8FA"/>
<rect class="bg" x="100.8" y="36" width="8.4" height="18" fill="#07C7FA"/>
<rect class="bg" x="109.2" y="36" width="8.4" height="18" fill="#08C6F9"/>
<rect class="bg" x="117.6" y="36" width="8.4" height="18" fill="#09C5F9"/>
<text class="crt" x="126" y="50" fill="#09C4F8" textLength="8.4" lengthAdjust="spacingAndGlyphs">╗</text>
<rect class="bg" x="142.8" y="36" width="8.4" height="18" fill="#0BC2F7"/>
<rect class="bg" x="151.2" y="36" width="8.4" height="18" fill="#0BC1F7"/>
<rect class="bg" x="159.6" y="36" width="8.4" height="18" fill="#0CC0F6"/>
<text class="crt" x="168" y="50" fill="#0CBFF6" textLength="8.4" lengthAdjust="spacingAndGlyphs">╗</text>
<rect class="bg" x="201.6" y="36" width="8.4" height="18" fill="#0FBCF4"/>
<rect class="bg" x="210" y="36" width="8.4" height="18" fill="#10BBF4"/>
<text class="crt" x="218.4" y="50" fill="#10BAF3" textLength="8.4" lengthAdjust="spacingAndGlyphs">╗</text>
<rect class="bg" x="226.8" y="36" width="8.4" height="18" fill="#11B9F3"/>
<rect class="bg" x="235.2" y="36" width="8.4" height="18" fill="#11B8F2"/>
<rect class="bg" x="243.6" y="36" width="8.4" height="18" fill="#12B7F2"/>
<rect class="bg" x="252" y="36" width="8.4" height="18" fill="#13B6F1"/>
<rect class="bg" x="260.4" y="36" width="8.4" height="18" fill="#13B5F1"/>
<rect class="bg" x="268.8" y="36" width="8.4" height="18" fill="#14B4F1"/>
<rect class="bg" x="277.2" y="36" width="8.4" height="18" fill="#15B3F0"/>
<text class="crt" x="285.6" y="50" fill="#15B2F0" textLength="8.4" lengthAdjust="spacingAndGlyphs">╗</text>
<rect class="bg" x="302.4" y="36" width="8.4" height="18" fill="#16B0EF"/>
<rect class="bg" x="310.8" y="36" width="8.4" height="18" fill="#17AFEE"/>
<rect class="bg" x="319.2" y="36" width="8.4" height="18" fill="#18AEEE"/>
<rect class="bg" x="327.6" y="36" width="8.4" height="18" fill="#18AEED"/>
<rect class="bg" x="336" y="36" width="8.4" height="18" fill="#19ADED"/>
<rect class="bg" x="344.4" y="36" width="8.4" height="18" fill="#1AACEC"/>
<text class="crt" x="352.8" y="50" fill="#1AABEC" textLength="8.4" lengthAdjust="spacingAndGlyphs">╗</text>
<rect class="bg" x="369.6" y="36" width="8.4" height="18" fill="#1BA9EB"/>
<rect class="bg" x="378" y="36" width="8.4" height="18" fill="#1CA8EB"/>
<text class="crt" x="386.4" y="50" fill="#1DA7EA" textLength="8.4" lengthAdjust="spacingAndGlyphs">╗</text>
<rect class="bg" x="436.8" y="36" width="8.4" height="18" fill="#20A1E8"/>
<rect class="bg" x="445.2" y="36" width="8.4" height="18" fill="#21A0E7"/>
<rect class="bg" x="453.6" y="36" width="8.4" height="18" fill="#229FE7"/>
<rect class="bg" x="462" y="36" width="8.4" height="18" fill="#229FE6"/>
<rect class="bg" x="470.4" y="36" width="8.4" height="18" fill="#239EE6"/>
<rect class="bg" x="478.8" y="36" width="8.4" height="18" fill="#249DE5"/>
<rect class="bg" x="487.2" y="36" width="8.4" height="18" fill="#249CE5"/>
<text class="crt" x="495.6" y="50" fill="#259BE4" textLength="8.4" lengthAdjust="spacingAndGlyphs">╗</text>
<rect class="bg" x="504" y="36" width="8.4" height="18" fill="#259AE4"/>
<rect class="bg" x="512.4" y="36" width="8.4" height="18" fill="#2699E3"/>
<rect class="bg" x="520.8" y="36" width="8.4" height="18" fill="#2798E3"/>
<rect class="bg" x="529.2" y="36" width="8.4" height="18" fill="#2797E3"/>
<rect class="bg" x="537.6" y="36" width="8.4" height="18" fill="#2896E2"/>
<rect class="bg" x="546" y="36" width="8.4" height="18" fill="#2995E2"/>
<text class="crt" x="554.4" y="50" fill="#2994E1" textLength="8.4" lengthAdjust="spacingAndGlyphs">╗</text>
<rect class="bg" x="571.2" y="36" width="8.4" height="18" fill="#2A92E0"/>
<rect class="bg" x="579.6" y="36" width="8.4" height="18" fill="#2B91E0"/>
<rect class="bg" x="588" y="36" width="8.4" height="18" fill="#2C91DF"/>
<rect class="bg" x="596.4" y="36" width="8.4" height="18" fill="#2C90DF"/>
<rect class="bg" x="604.8" y="36" width="8.4" height="18" fill="#2D8FDE"/>
<rect class="bg" x="613.2" y="36" width="8.4" height="18" fill="#2E8EDE"/>
<rect class="bg" x="621.6" y="36" width="8.4" height="18" fill="#2E8DDE"/>
<text class="crt" x="630" y="50" fill="#2F8CDD" textLength="8.4" lengthAdjust="spacingAndGlyphs">╗</text>
<rect class="bg" x="638.4" y="36" width="8.4" height="18" fill="#2F8BDD"/>
<rect class="bg" x="646.8" y="36" width="8.4" height="18" fill="#308ADC"/>
<text class="crt" x="655.2" y="50" fill="#3189DC" textLength="8.4" lengthAdjust="spacingAndGlyphs">╗</text>
<rect class="bg" x="688.8" y="36" width="8.4" height="18" fill="#3385DA"/>
<rect class="bg" x="697.2" y="36" width="8.4" height="18" fill="#3484DA"/>
<text class="crt" x="705.6" y="50" fill="#3483D9" textLength="8.4" lengthAdjust="spacingAndGlyphs">╗</text>
<rect class="bg" x="722.4" y="36" width="8.4" height="18" fill="#3682D8"/>
<rect class="bg" x="730.8" y="36" width="8.4" height="18" fill="#3681D8"/>
<rect class="bg" x="739.2" y="36" width="8.4" height="18" fill="#3780D7"/>
<rect class="bg" x="747.6" y="36" width="8.4" height="18" fill="#387FD7"/>
<rect class="bg" x="756" y="36" width="8.4" height="18" fill="#387ED6"/>
<rect class="bg" x="764.4" y="36" width="8.4" height="18" fill="#397DD6"/>
<text class="crt" x="772.8" y="50" fill="#397CD5" textLength="8.4" lengthAdjust="spacingAndGlyphs">╗</text>
<rect class="bg" x="0" y="54" width="8.4" height="18" fill="#00D2FF"/>
<rect class="bg" x="8.4" y="54" width="8.4" height="18" fill="#01D1FF"/>
<text class="crt" x="16.8" y="68" fill="#01D0FE" textLength="8.4" lengthAdjust="spacingAndGlyphs">╔</text>
<text class="crt" x="25.2" y="68" fill="#02CFFE" textLength="8.4" lengthAdjust="spacingAndGlyphs">═</text>
<text class="crt" x="33.6" y="68" fill="#02CEFD" textLength="8.4" lengthAdjust="spacingAndGlyphs">═</text>
<text class="crt" x="42" y="68" fill="#03CDFD" textLength="8.4" lengthAdjust="spacingAndGlyphs">═</text>
<text class="crt" x="50.4" y="68" fill="#04CCFC" textLength="8.4" lengthAdjust="spacingAndGlyphs">═</text>
<text class="crt" x="58.8" y="68" fill="#04CBFC" textLength="8.4" lengthAdjust="spacingAndGlyphs">╝</text>
<rect class="bg" x="67.2" y="54" width="8.4" height="18" fill="#05CBFB"/>
<rect class="bg" x="75.6" y="54" width="8.4" height="18" fill="#06CAFB"/>
<text class="crt" x="84" y="68" fill="#06C9FA" textLength="8.4" lengthAdjust="spacingAndGlyphs">╔</text>
<text class="crt" x="92.4" y="68" fill="#07C8FA" textLength="8.4" lengthAdjust="spacingAndGlyphs">═</text>
<text class="crt" x="100.8" y="68" fill="#07C7FA" textLength="8.4" lengthAdjust="spacingAndGlyphs">═</text>
<text class="crt" x="109.2" y="68" fill="#08C6F9" textLength="8.4" lengthAdjust="spacingAndGlyphs">═</text>
<rect class="bg" x="117.6" y="54" width="8.4" height="18" fill="#09C5F9"/>
<rect class="bg" x="126" y="54" width="8.4" height="18" fill="#09C4F8"/>
<text class="crt" x="134.4" y="68" fill="#0AC3F8" textLength="8.4" lengthAdjust="spacingAndGlyphs">╗</text>
<rect class="bg" x="142.8" y="54" width="8.4" height="18" fill="#0BC2F7"/>
<rect class="bg" x="151.2" y="54" width="8.4" height="18" fill="#0BC1F7"/>
<rect class="bg" x="159.6" y="54" width="8.4" height="18" fill="#0CC0F6"/>
<rect class="bg" x="168" y="54" width="8.4" height="18" fill="#0CBFF6"/>
<text class="crt" x="176.4" y="68" fill="#0DBEF6" textLength="8.4" lengthAdjust="spacingAndGlyphs">╗</text>
<rect class="bg" x="201.6" y="54" width="8.4" height="18" fill="#0FBCF4"/>
<rect class="bg" x="210" y="54" width="8.4" height="18" fill="#10BBF4"/>
<text class="crt" x="218.4" y="68" fill="#10BAF3" textLength="8.4" lengthAdjust="spacingAndGlyphs">║</text>
<rect class="bg" x="226.8" y="54" width="8.4" height="18" fill="#11B9F3"/>
<rect class="bg" x="235.2" y="54" width="8.4" height="18" fill="#11B8F2"/>
<text class="crt" x="243.6" y="68" fill="#12B7F2" textLength="8.4" lengthAdjust="spacingAndGlyphs">╔</text>
<text class="crt" x="252" y="68" fill="#13B6F1" textLength="8.4" lengthAdjust="spacingAndGlyphs">═</text>
<text class="crt" x="260.4" y="68" fill="#13B5F1" textLength="8.4" lengthAdjust="spacingAndGlyphs">═</text>
<text class="crt" x="268.8" y="68" fill="#14B4F1" textLength="8.4" lengthAdjust="spacingAndGlyphs">═</text>
<text class="crt" x="277.2" y="68" fill="#15B3F0" textLength="8.4" lengthAdjust="spacingAndGlyphs">═</text>
<text class="crt" x="285.6" y="68" fill="#15B2F0" textLength="8.4" lengthAdjust="spacingAndGlyphs">╝</text>
<rect class="bg" x="294" y="54" width="8.4" height="18" fill="#16B1EF"/>
<rect class="bg" x="302.4" y="54" width="8.4" height="18" fill="#16B0EF"/>
<text class="crt" x="310.8" y="68" fill="#17AFEE" textLength="8.4" lengthAdjust="spacingAndGlyphs">╔</text>
<text class="crt" x="319.2" y="68" fill="#18AEEE" textLength="8.4" lengthAdjust="spacingAndGlyphs">═</text>
<text class="crt" x="327.6" y="68" fill="#18AEED" textLength="8.4" lengthAdjust="spacingAndGlyphs">═</text>
<text class="crt" x="336" y="68" fill="#19ADED" textLength="8.4" lengthAdjust="spacingAndGlyphs">═</text>
<rect class="bg" x="344.4" y="54" width="8.4" height="18" fill="#1AACEC"/>
<rect class="bg" x="352.8" y="54" width="8.4" height="18" fill="#1AABEC"/>
<text class="crt" x="361.2" y="68" fill="#1BAAEC" textLength="8.4" lengthAdjust="spacingAndGlyphs">╗</text>
<rect class="bg" x="369.6" y="54" width="8.4" height="18" fill="#1BA9EB"/>
<rect class="bg" x="378" y="54" width="8.4" height="18" fill="#1CA8EB"/>
<text class="crt" x="386.4" y="68" fill="#1DA7EA" textLength="8.4" lengthAdjust="spacingAndGlyphs">║</text>
<rect class="bg" x="436.8" y="54" width="8.4" height="18" fill="#20A1E8"/>
<rect class="bg" x="445.2" y="54" width="8.4" height="18" fill="#21A0E7"/>
<text class="crt" x="453.6" y="68" fill="#229FE7" textLength="8.4" lengthAdjust="spacingAndGlyphs">╔</text>
<text class="crt" x="462" y="68" fill="#229FE6" textLength="8.4" lengthAdjust="spacingAndGlyphs">═</text>
<text class="crt" x="470.4" y="68" fill="#239EE6" textLength="8.4" lengthAdjust="spacingAndGlyphs">═</text>
<text class="crt" x="478.8" y="68" fill="#249DE5" textLength="8.4" lengthAdjust="spacingAndGlyphs">═</text>
<text class="crt" x="487.2" y="68" fill="#249CE5" textLength="8.4" lengthAdjust="spacingAndGlyphs">═</text>
<text class="crt" x="495.6" y="68" fill="#259BE4" textLength="8.4" lengthAdjust="spacingAndGlyphs">╝</text>
<text class="crt" x="504" y="68" fill="#259AE4" textLength="8.4" lengthAdjust="spacingAndGlyphs">╚</text>
<text class="crt" x="512.4" y="68" fill="#2699E3" textLength="8.4" lengthAdjust="spacingAndGlyphs">═</text>
<text class="crt" x="520.8" y="68" fill="#2798E3" textLength="8.4" lengthAdjust="spacingAndGlyphs">═</text>
<text class="crt" x="529.2" y="68" fill="#2797E3" textLength="8.4" lengthAdjust="spacingAndGlyphs">═</text>
<text class="crt" x="537.6" y="68" fill="#2896E2" textLength="8.4" lengthAdjust="spacingAndGlyphs">═</text>
<rect class="bg" x="546" y="54" width="8.4" height="18" fill="#2995E2"/>
<rect class="bg" x="554.4" y="54" width="8.4" height="18" fill="#2994E1"/>
<text class="crt" x="562.8" y="68" fill="#2A93E1" textLength="8.4" lengthAdjust="spacingAndGlyphs">╗</text>
<rect class="bg" x="571.2" y="54" width="8.4" height="18" fill="#2A92E0"/>
<rect class="bg" x="579.6" y="54" width="8.4" height="18" fill="#2B91E0"/>
<text class="crt" x="588" y="68" fill="#2C91DF" textLength="8.4" lengthAdjust="spacingAndGlyphs">╔</text>
<text class="crt" x="596.4" y="68" fill="#2C90DF" textLength="8.4" lengthAdjust="spacingAndGlyphs">═</text>
<text class="crt" x="604.8" y="68" fill="#2D8FDE" textLength="8.4" lengthAdjust="spacingAndGlyphs">═</text>
<text class="crt" x="613.2" y="68" fill="#2E8EDE" textLength="8.4" lengthAdjust="spacingAndGlyphs">═</text>
<text class="crt" x="621.6" y="68" fill="#2E8DDE" textLength="8.4" lengthAdjust="spacingAndGlyphs">═</text>
<text class="crt" x="630" y="68" fill="#2F8CDD" textLength="8.4" lengthAdjust="spacingAndGlyphs">╝</text>
<rect class="bg" x="638.4" y="54" width="8.4" height="18" fill="#2F8BDD"/>
<rect class="bg" x="646.8" y="54" width="8.4" height="18" fill="#308ADC"/>
<text class="crt" x="655.2" y="68" fill="#3189DC" textLength="8.4" lengthAdjust="spacingAndGlyphs">║</text>
<rect class="bg" x="688.8" y="54" width="8.4" height="18" fill="#3385DA"/>
<rect class="bg" x="697.2" y="54" width="8.4" height="18" fill="#3484DA"/>
<text class="crt" x="705.6" y="68" fill="#3483D9" textLength="8.4" lengthAdjust="spacingAndGlyphs">║</text>
<rect class="bg" x="714" y="54" width="8.4" height="18" fill="#3582D9"/>
<rect class="bg" x="722.4" y="54" width="8.4" height="18" fill="#3682D8"/>
<text class="crt" x="730.8" y="68" fill="#3681D8" textLength="8.4" lengthAdjust="spacingAndGlyphs">╔</text>
<text class="crt" x="739.2" y="68" fill="#3780D7" textLength="8.4" lengthAdjust="spacingAndGlyphs">═</text>
<text class="crt" x="747.6" y="68" fill="#387FD7" textLength="8.4" lengthAdjust="spacingAndGlyphs">═</text>
<text class="crt" x="756" y="68" fill="#387ED6" textLength="8.4" lengthAdjust="spacingAndGlyphs">═</text>
<text class="crt" x="764.4" y="68" fill="#397DD6" textLength="8.4" lengthAdjust="spacingAndGlyphs">═</text>
<text class="crt" x="772.8" y="68" fill="#397CD5" textLength="8.4" lengthAdjust="spacingAndGlyphs">╝</text>
<rect class="bg" x="0" y="72" width="8.4" height="18" fill="#00D2FF"/>
<rect class="bg" x="8.4" y="72" width="8.4" height="18" fill="#01D1FF"/>
<text class="crt" x="16.8" y="86" fill="#01D0FE" textLength="8.4" lengthAdjust="spacingAndGlyphs">║</text>
<rect class="bg" x="67.2" y="72" width="8.4" height="18" fill="#05CBFB"/>
<rect class="bg" x="75.6" y="72" width="8.4" height="18" fill="#06CAFB"/>
<text class="crt" x="84" y="86" fill="#06C9FA" textLength="8.4" lengthAdjust="spacingAndGlyphs">║</text>
<rect class="bg" x="117.6" y="72" width="8.4" height="18" fill="#09C5F9"/>
<rect class="bg" x="126" y="72" width="8.4" height="18" fill="#09C4F8"/>
<text class="crt" x="134.4" y="86" fill="#0AC3F8" textLength="8.4" lengthAdjust="spacingAndGlyphs">║</text>
<rect class="bg" x="142.8" y="72" width="8.4" height="18" fill="#0BC2F7"/>
<rect class="bg" x="151.2" y="72" width="8.4" height="18" fill="#0BC1F7"/>
<text class="crt" x="159.6" y="86" fill="#0CC0F6" textLength="8.4" lengthAdjust="spacingAndGlyphs">╔</text>
<rect class="bg" x="168" y="72" width="8.4" height="18" fill="#0CBFF6"/>
<rect class="bg" x="176.4" y="72" width="8.4" height="18" fill="#0DBEF6"/>
<text class="crt" x="184.8" y="86" fill="#0EBDF5" textLength="8.4" lengthAdjust="spacingAndGlyphs">╗</text>
<rect class="bg" x="201.6" y="72" width="8.4" height="18" fill="#0FBCF4"/>
<rect class="bg" x="210" y="72" width="8.4" height="18" fill="#10BBF4"/>
<text class="crt" x="218.4" y="86" fill="#10BAF3" textLength="8.4" lengthAdjust="spacingAndGlyphs">║</text>
<rect class="bg" x="226.8" y="72" width="8.4" height="18" fill="#11B9F3"/>
<rect class="bg" x="235.2" y="72" width="8.4" height="18" fill="#11B8F2"/>
<rect class="bg" x="243.6" y="72" width="8.4" height="18" fill="#12B7F2"/>
<rect class="bg" x="252" y="72" width="8.4" height="18" fill="#13B6F1"/>
<rect class="bg" x="260.4" y="72" width="8.4" height="18" fill="#13B5F1"/>
<rect class="bg" x="268.8" y="72" width="8.4" height="18" fill="#14B4F1"/>
<rect class="bg" x="277.2" y="72" width="8.4" height="18" fill="#15B3F0"/>
<text class="crt" x="285.6" y="86" fill="#15B2F0" textLength="8.4" lengthAdjust="spacingAndGlyphs">╗</text>
<rect class="bg" x="294" y="72" width="8.4" height="18" fill="#16B1EF"/>
<rect class="bg" x="302.4" y="72" width="8.4" height="18" fill="#16B0EF"/>
<text class="crt" x="310.8" y="86" fill="#17AFEE" textLength="8.4" lengthAdjust="spacingAndGlyphs">║</text>
<rect class="bg" x="344.4" y="72" width="8.4" height="18" fill="#1AACEC"/>
<rect class="bg" x="352.8" y="72" width="8.4" height="18" fill="#1AABEC"/>
<text class="crt" x="361.2" y="86" fill="#1BAAEC" textLength="8.4" lengthAdjust="spacingAndGlyphs">║</text>
<rect class="bg" x="369.6" y="72" width="8.4" height="18" fill="#1BA9EB"/>
<rect class="bg" x="378" y="72" width="8.4" height="18" fill="#1CA8EB"/>
<text class="crt" x="386.4" y="86" fill="#1DA7EA" textLength="8.4" lengthAdjust="spacingAndGlyphs">║</text>
<rect class="bg" x="436.8" y="72" width="8.4" height="18" fill="#20A1E8"/>
<rect class="bg" x="445.2" y="72" width="8.4" height="18" fill="#21A0E7"/>
<rect class="bg" x="453.6" y="72" width="8.4" height="18" fill="#229FE7"/>
<rect class="bg" x="462" y="72" width="8.4" height="18" fill="#229FE6"/>
<rect class="bg" x="470.4" y="72" width="8.4" height="18" fill="#239EE6"/>
<text class="crt" x="478.8" y="86" fill="#249DE5" textLength="8.4" lengthAdjust="spacingAndGlyphs">╗</text>
<rect class="bg" x="512.4" y="72" width="8.4" height="18" fill="#2699E3"/>
<rect class="bg" x="520.8" y="72" width="8.4" height="18" fill="#2798E3"/>
<rect class="bg" x="529.2" y="72" width="8.4" height="18" fill="#2797E3"/>
<rect class="bg" x="537.6" y="72" width="8.4" height="18" fill="#2896E2"/>
<rect class="bg" x="546" y="72" width="8.4" height="18" fill="#2995E2"/>
<text class="crt" x="554.4" y="86" fill="#2994E1" textLength="8.4" lengthAdjust="spacingAndGlyphs">╔</text>
<text class="crt" x="562.8" y="86" fill="#2A93E1" textLength="8.4" lengthAdjust="spacingAndGlyphs">╝</text>
<rect class="bg" x="571.2" y="72" width="8.4" height="18" fill="#2A92E0"/>
<rect class="bg" x="579.6" y="72" width="8.4" height="18" fill="#2B91E0"/>
<rect class="bg" x="588" y="72" width="8.4" height="18" fill="#2C91DF"/>
<rect class="bg" x="596.4" y="72" width="8.4" height="18" fill="#2C90DF"/>
<rect class="bg" x="604.8" y="72" width="8.4" height="18" fill="#2D8FDE"/>
<rect class="bg" x="613.2" y="72" width="8.4" height="18" fill="#2E8EDE"/>
<rect class="bg" x="621.6" y="72" width="8.4" height="18" fill="#2E8DDE"/>
<text class="crt" x="630" y="86" fill="#2F8CDD" textLength="8.4" lengthAdjust="spacingAndGlyphs">╗</text>
<rect class="bg" x="638.4" y="72" width="8.4" height="18" fill="#2F8BDD"/>
<rect class="bg" x="646.8" y="72" width="8.4" height="18" fill="#308ADC"/>
<text class="crt" x="655.2" y="86" fill="#3189DC" textLength="8.4" lengthAdjust="spacingAndGlyphs">║</text>
<rect class="bg" x="688.8" y="72" width="8.4" height="18" fill="#3385DA"/>
<rect class="bg" x="697.2" y="72" width="8.4" height="18" fill="#3484DA"/>
<text class="crt" x="705.6" y="86" fill="#3483D9" textLength="8.4" lengthAdjust="spacingAndGlyphs">║</text>
<rect class="bg" x="714" y="72" width="8.4" height="18" fill="#3582D9"/>
<rect class="bg" x="722.4" y="72" width="8.4" height="18" fill="#3682D8"/>
<text class="crt" x="730.8" y="86" fill="#3681D8" textLength="8.4" lengthAdjust="spacingAndGlyphs">║</text>
<rect class="bg" x="756" y="72" width="8.4" height="18" fill="#387ED6"/>
<rect class="bg" x="764.4" y="72" width="8.4" height="18" fill="#397DD6"/>
<rect class="bg" x="772.8" y="72" width="8.4" height="18" fill="#397CD5"/>
<text class="crt" x="781.2" y="86" fill="#3A7BD5" textLength="8.4" lengthAdjust="spacingAndGlyphs">╗</text>
<rect class="bg" x="0" y="90" width="8.4" height="18" fill="#00D2FF"/>
<rect class="bg" x="8.4" y="90" width="8.4" height="18" fill="#01D1FF"/>
<text class="crt" x="16.8" y="104" fill="#01D0FE" textLength="8.4" lengthAdjust="spacingAndGlyphs">║</text>
<rect class="bg" x="67.2" y="90" width="8.4" height="18" fill="#05CBFB"/>
<rect class="bg" x="75.6" y="90" width="8.4" height="18" fill="#06CAFB"/>
<text class="crt" x="84" y="104" fill="#06C9FA" textLength="8.4" lengthAdjust="spacingAndGlyphs">║</text>
<rect class="bg" x="117.6" y="90" width="8.4" height="18" fill="#09C5F9"/>
<rect class="bg" x="126" y="90" width="8.4" height="18" fill="#09C4F8"/>
<text class="crt" x="134.4" y="104" fill="#0AC3F8" textLength="8.4" lengthAdjust="spacingAndGlyphs">║</text>
<rect class="bg" x="142.8" y="90" width="8.4" height="18" fill="#0BC2F7"/>
<rect class="bg" x="151.2" y="90" width="8.4" height="18" fill="#0BC1F7"/>
<text class="crt" x="159.6" y="104" fill="#0CC0F6" textLength="8.4" lengthAdjust="spacingAndGlyphs">║</text>
<text class="crt" x="168" y="104" fill="#0CBFF6" textLength="8.4" lengthAdjust="spacingAndGlyphs">╚</text>
<rect class="bg" x="176.4" y="90" width="8.4" height="18" fill="#0DBEF6"/>
<rect class="bg" x="184.8" y="90" width="8.4" height="18" fill="#0EBDF5"/>
<text class="crt" x="193.2" y="104" fill="#0EBCF5" textLength="8.4" lengthAdjust="spacingAndGlyphs">╗</text>
<rect class="bg" x="201.6" y="90" width="8.4" height="18" fill="#0FBCF4"/>
<rect class="bg" x="210" y="90" width="8.4" height="18" fill="#10BBF4"/>
<text class="crt" x="218.4" y="104" fill="#10BAF3" textLength="8.4" lengthAdjust="spacingAndGlyphs">║</text>
<text class="crt" x="226.8" y="104" fill="#11B9F3" textLength="8.4" lengthAdjust="spacingAndGlyphs">╚</text>
<text class="crt" x="235.2" y="104" fill="#11B8F2" textLength="8.4" lengthAdjust="spacingAndGlyphs">═</text>
<text class="crt" x="243.6" y="104" fill="#12B7F2" textLength="8.4" lengthAdjust="spacingAndGlyphs">═</text>
<text class="crt" x="252" y="104" fill="#13B6F1" textLength="8.4" lengthAdjust="spacingAndGlyphs">═</text>
<text class="crt" x="260.4" y="104" fill="#13B5F1" textLength="8.4" lengthAdjust="spacingAndGlyphs">═</text>
<rect class="bg" x="268.8" y="90" width="8.4" height="18" fill="#14B4F1"/>
<rect class="bg" x="277.2" y="90" width="8.4" height="18" fill="#15B3F0"/>
<text class="crt" x="285.6" y="104" fill="#15B2F0" textLength="8.4" lengthAdjust="spacingAndGlyphs">║</text>
<rect class="bg" x="294" y="90" width="8.4" height="18" fill="#16B1EF"/>
<rect class="bg" x="302.4" y="90" width="8.4" height="18" fill="#16B0EF"/>
<text class="crt" x="310.8" y="104" fill="#17AFEE" textLength="8.4" lengthAdjust="spacingAndGlyphs">║</text>
<rect class="bg" x="344.4" y="90" width="8.4" height="18" fill="#1AACEC"/>
<rect class="bg" x="352.8" y="90" width="8.4" height="18" fill="#1AABEC"/>
<text class="crt" x="361.2" y="104" fill="#1BAAEC" textLength="8.4" lengthAdjust="spacingAndGlyphs">║</text>
<rect class="bg" x="369.6" y="90" width="8.4" height="18" fill="#1BA9EB"/>
<rect class="bg" x="378" y="90" width="8.4" height="18" fill="#1CA8EB"/>
<text class="crt" x="386.4" y="104" fill="#1DA7EA" textLength="8.4" lengthAdjust="spacingAndGlyphs">║</text>
<rect class="bg" x="436.8" y="90" width="8.4" height="18" fill="#20A1E8"/>
<rect class="bg" x="445.2" y="90" width="8.4" height="18" fill="#21A0E7"/>
<text class="crt" x="453.6" y="104" fill="#229FE7" textLength="8.4" lengthAdjust="spacingAndGlyphs">╔</text>
<text class="crt" x="462" y="104" fill="#229FE6" textLength="8.4" lengthAdjust="spacingAndGlyphs">═</text>
<text class="crt" x="470.4" y="104" fill="#239EE6" textLength="8.4" lengthAdjust="spacingAndGlyphs">═</text>
<text class="crt" x="478.8" y="104" fill="#249DE5" textLength="8.4" lengthAdjust="spacingAndGlyphs">╝</text>
<rect class="bg" x="504" y="90" width="8.4" height="18" fill="#259AE4"/>
<rect class="bg" x="512.4" y="90" width="8.4" height="18" fill="#2699E3"/>
<text class="crt" x="520.8" y="104" fill="#2798E3" textLength="8.4" lengthAdjust="spacingAndGlyphs">╔</text>
<text class="crt" x="529.2" y="104" fill="#2797E3" textLength="8.4" lengthAdjust="spacingAndGlyphs">═</text>
<text class="crt" x="537.6" y="104" fill="#2896E2" textLength="8.4" lengthAdjust="spacingAndGlyphs">═</text>
<text class="crt" x="546" y="104" fill="#2995E2" textLength="8.4" lengthAdjust="spacingAndGlyphs">═</text>
<text class="crt" x="554.4" y="104" fill="#2994E1" textLength="8.4" lengthAdjust="spacingAndGlyphs">╝</text>
<text class="crt" x="571.2" y="104" fill="#2A92E0" textLength="8.4" lengthAdjust="spacingAndGlyphs">╚</text>
<text class="crt" x="579.6" y="104" fill="#2B91E0" textLength="8.4" lengthAdjust="spacingAndGlyphs">═</text>
<text class="crt" x="588" y="104" fill="#2C91DF" textLength="8.4" lengthAdjust="spacingAndGlyphs">═</text>
<text class="crt" x="596.4" y="104" fill="#2C90DF" textLength="8.4" lengthAdjust="spacingAndGlyphs">═</text>
<text class="crt" x="604.8" y="104" fill="#2D8FDE" textLength="8.4" lengthAdjust="spacingAndGlyphs">═</text>
<rect class="bg" x="613.2" y="90" width="8.4" height="18" fill="#2E8EDE"/>
<rect class="bg" x="621.6" y="90" width="8.4" height="18" fill="#2E8DDE"/>
<text class="crt" x="630" y="104" fill="#2F8CDD" textLength="8.4" lengthAdjust="spacingAndGlyphs">║</text>
<text class="crt" x="638.4" y="104" fill="#2F8BDD" textLength="8.4" lengthAdjust="spacingAndGlyphs">╚</text>
<rect class="bg" x="646.8" y="90" width="8.4" height="18" fill="#308ADC"/>
<rect class="bg" x="655.2" y="90" width="8.4" height="18" fill="#3189DC"/>
<text class="crt" x="663.6" y="104" fill="#3188DB" textLength="8.4" lengthAdjust="spacingAndGlyphs">╗</text>
<rect class="bg" x="680.4" y="90" width="8.4" height="18" fill="#3386DA"/>
<rect class="bg" x="688.8" y="90" width="8.4" height="18" fill="#3385DA"/>
<text class="crt" x="697.2" y="104" fill="#3484DA" textLength="8.4" lengthAdjust="spacingAndGlyphs">╔</text>
<text class="crt" x="705.6" y="104" fill="#3483D9" textLength="8.4" lengthAdjust="spacingAndGlyphs">╝</text>
<rect class="bg" x="714" y="90" width="8.4" height="18" fill="#3582D9"/>
<rect class="bg" x="722.4" y="90" width="8.4" height="18" fill="#3682D8"/>
<text class="crt" x="730.8" y="104" fill="#3681D8" textLength="8.4" lengthAdjust="spacingAndGlyphs">║</text>
<rect class="bg" x="764.4" y="90" width="8.4" height="18" fill="#397DD6"/>
<rect class="bg" x="772.8" y="90" width="8.4" height="18" fill="#397CD5"/>
<text class="crt" x="781.2" y="104" fill="#3A7BD5" textLength="8.4" lengthAdjust="spacingAndGlyphs">║</text>
<text class="crt" x="0" y="122" fill="#00D2FF" textLength="8.4" lengthAdjust="spacingAndGlyphs">╚</text>
<rect class="bg" x="8.4" y="108" width="8.4" height="18" fill="#01D1FF"/>
<rect class="bg" x="16.8" y="108" width="8.4" height="18" fill="#01D0FE"/>
<rect class="bg" x="25.2" y="108" width="8.4" height="18" fill="#02CFFE"/>
<rect class="bg" x="33.6" y="108" width="8.4" height="18" fill="#02CEFD"/>
<rect class="bg" x="42" y="108" width="8.4" height="18" fill="#03CDFD"/>
<rect class="bg" x="50.4" y="108" width="8.4" height="18" fill="#04CCFC"/>
<text class="crt" x="58.8" y="122" fill="#04CBFC" textLength="8.4" lengthAdjust="spacingAndGlyphs">╗</text>
<text class="crt" x="67.2" y="122" fill="#05CBFB" textLength="8.4" lengthAdjust="spacingAndGlyphs">╚</text>
<rect class="bg" x="75.6" y="108" width="8.4" height="18" fill="#06CAFB"/>
<rect class="bg" x="84" y="108" width="8.4" height="18" fill="#06C9FA"/>
<rect class="bg" x="92.4" y="108" width="8.4" height="18" fill="#07C8FA"/>
<rect class="bg" x="100.8" y="108" width="8.4" height="18" fill="#07C7FA"/>
<rect class="bg" x="109.2" y="108" width="8.4" height="18" fill="#08C6F9"/>
<rect class="bg" x="117.6" y="108" width="8.4" height="18" fill="#09C5F9"/>
<text class="crt" x="126" y="122" fill="#09C4F8" textLength="8.4" lengthAdjust="spacingAndGlyphs">╔</text>
<text class="crt" x="134.4" y="122" fill="#0AC3F8" textLength="8.4" lengthAdjust="spacingAndGlyphs">╝</text>
<rect class="bg" x="142.8" y="108" width="8.4" height="18" fill="#0BC2F7"/>
<rect class="bg" x="151.2" y="108" width="8.4" height="18" fill="#0BC1F7"/>
<text class="crt" x="159.6" y="122" fill="#0CC0F6" textLength="8.4" lengthAdjust="spacingAndGlyphs">║</text>
<text class="crt" x="176.4" y="122" fill="#0DBEF6" textLength="8.4" lengthAdjust="spacingAndGlyphs">╚</text>
<rect class="bg" x="184.8" y="108" width="8.4" height="18" fill="#0EBDF5"/>
<rect class="bg" x="193.2" y="108" width="8.4" height="18" fill="#0EBCF5"/>
<rect class="bg" x="201.6" y="108" width="8.4" height="18" fill="#0FBCF4"/>
<rect class="bg" x="210" y="108" width="8.4" height="18" fill="#10BBF4"/>
<text class="crt" x="218.4" y="122" fill="#10BAF3" textLength="8.4" lengthAdjust="spacingAndGlyphs">║</text>
<rect class="bg" x="226.8" y="108" width="8.4" height="18" fill="#11B9F3"/>
<rect class="bg" x="235.2" y="108" width="8.4" height="18" fill="#11B8F2"/>
<rect class="bg" x="243.6" y="108" width="8.4" height="18" fill="#12B7F2"/>
<rect class="bg" x="252" y="108" width="8.4" height="18" fill="#13B6F1"/>
<rect class="bg" x="260.4" y="108" width="8.4" height="18" fill="#13B5F1"/>
<rect class="bg" x="268.8" y="108" width="8.4" height="18" fill="#14B4F1"/>
<rect class="bg" x="277.2" y="108" width="8.4" height="18" fill="#15B3F0"/>
<text class="crt" x="285.6" y="122" fill="#15B2F0" textLength="8.4" lengthAdjust="spacingAndGlyphs">║</text>
<text class="crt" x="294" y="122" fill="#16B1EF" textLength="8.4" lengthAdjust="spacingAndGlyphs">╚</text>
<rect class="bg" x="302.4" y="108" width="8.4" height="18" fill="#16B0EF"/>
<rect class="bg" x="310.8" y="108" width="8.4" height="18" fill="#17AFEE"/>
<rect class="bg" x="319.2" y="108" width="8.4" height="18" fill="#18AEEE"/>
<rect class="bg" x="327.6" y="108" width="8.4" height="18" fill="#18AEED"/>
<rect class="bg" x="336" y="108" width="8.4" height="18" fill="#19ADED"/>
<rect class="bg" x="344.4" y="108" width="8.4" height="18" fill="#1AACEC"/>
<text class="crt" x="352.8" y="122" fill="#1AABEC" textLength="8.4" lengthAdjust="spacingAndGlyphs">╔</text>
<text class="crt" x="361.2" y="122" fill="#1BAAEC" textLength="8.4" lengthAdjust="spacingAndGlyphs">╝</text>
<rect class="bg" x="369.6" y="108" width="8.4" height="18" fill="#1BA9EB"/>
<rect class="bg" x="378" y="108" width="8.4" height="18" fill="#1CA8EB"/>
<rect class="bg" x="386.4" y="108" width="8.4" height="18" fill="#1DA7EA"/>
<rect class="bg" x="394.8" y="108" width="8.4" height="18" fill="#1DA6EA"/>
<rect class="bg" x="403.2" y="108" width="8.4" height="18" fill="#1EA5E9"/>
<rect class="bg" x="411.6" y="108" width="8.4" height="18" fill="#1FA4E9"/>
<rect class="bg" x="420" y="108" width="8.4" height="18" fill="#1FA3E8"/>
<text class="crt" x="428.4" y="122" fill="#20A2E8" textLength="8.4" lengthAdjust="spacingAndGlyphs">╗</text>
<rect class="bg" x="436.8" y="108" width="8.4" height="18" fill="#20A1E8"/>
<rect class="bg" x="445.2" y="108" width="8.4" height="18" fill="#21A0E7"/>
<rect class="bg" x="453.6" y="108" width="8.4" height="18" fill="#229FE7"/>
<rect class="bg" x="462" y="108" width="8.4" height="18" fill="#229FE6"/>
<rect class="bg" x="470.4" y="108" width="8.4" height="18" fill="#239EE6"/>
<rect class="bg" x="478.8" y="108" width="8.4" height="18" fill="#249DE5"/>
<rect class="bg" x="487.2" y="108" width="8.4" height="18" fill="#249CE5"/>
<text class="crt" x="495.6" y="122" fill="#259BE4" textLength="8.4" lengthAdjust="spacingAndGlyphs">╗</text>
<rect class="bg" x="504" y="108" width="8.4" height="18" fill="#259AE4"/>
<rect class="bg" x="512.4" y="108" width="8.4" height="18" fill="#2699E3"/>
<rect class="bg" x="520.8" y="108" width="8.4" height="18" fill="#2798E3"/>
<rect class="bg" x="529.2" y="108" width="8.4" height="18" fill="#2797E3"/>
<rect class="bg" x="537.6" y="108" width="8.4" height="18" fill="#2896E2"/>
<rect class="bg" x="546" y="108" width="8.4" height="18" fill="#2995E2"/>
<rect class="bg" x="554.4" y="108" width="8.4" height="18" fill="#2994E1"/>
<text class="crt" x="562.8" y="122" fill="#2A93E1" textLength="8.4" lengthAdjust="spacingAndGlyphs">╗</text>
<rect class="bg" x="571.2" y="108" width="8.4" height="18" fill="#2A92E0"/>
<rect class="bg" x="579.6" y="108" width="8.4" height="18" fill="#2B91E0"/>
<rect class="bg" x="588" y="108" width="8.4" height="18" fill="#2C91DF"/>
<rect class="bg" x="596.4" y="108" width="8.4" height="18" fill="#2C90DF"/>
<rect class="bg" x="604.8" y="108" width="8.4" height="18" fill="#2D8FDE"/>
<rect class="bg" x="613.2" y="108" width="8.4" height="18" fill="#2E8EDE"/>
<rect class="bg" x="621.6" y="108" width="8.4" height="18" fill="#2E8DDE"/>
<text class="crt" x="630" y="122" fill="#2F8CDD" textLength="8.4" lengthAdjust="spacingAndGlyphs">║</text>
<text class="crt" x="646.8" y="122" fill="#308ADC" textLength="8.4" lengthAdjust="spacingAndGlyphs">╚</text>
<rect class="bg" x="655.2" y="108" width="8.4" height="18" fill="#3189DC"/>
<rect class="bg" x="663.6" y="108" width="8.4" height="18" fill="#3188DB"/>
<rect class="bg" x="672" y="108" width="8.4" height="18" fill="#3287DB"/>
<rect class="bg" x="680.4" y="108" width="8.4" height="18" fill="#3386DA"/>
<text class="crt" x="688.8" y="122" fill="#3385DA" textLength="8.4" lengthAdjust="spacingAndGlyphs">╔</text>
<text class="crt" x="697.2" y="122" fill="#3484DA" textLength="8.4" lengthAdjust="spacingAndGlyphs">╝</text>
<text class="crt" x="714" y="122" fill="#3582D9" textLength="8.4" lengthAdjust="spacingAndGlyphs">╚</text>
<rect class="bg" x="722.4" y="108" width="8.4" height="18" fill="#3682D8"/>
<rect class="bg" x="730.8" y="108" width="8.4" height="18" fill="#3681D8"/>
<rect class="bg" x="739.2" y="108" width="8.4" height="18" fill="#3780D7"/>
<rect class="bg" x="747.6" y="108" width="8.4" height="18" fill="#387FD7"/>
<rect class="bg" x="756" y="108" width="8.4" height="18" fill="#387ED6"/>
<rect class="bg" x="764.4" y="108" width="8.4" height="18" fill="#397DD6"/>
<text class="crt" x="772.8" y="122" fill="#397CD5" textLength="8.4" lengthAdjust="spacingAndGlyphs">╔</text>
<text class="crt" x="781.2" y="122" fill="#3A7BD5" textLength="8.4" lengthAdjust="spacingAndGlyphs">╝</text>
<text class="crt" x="8.4" y="140" fill="#01D1FF" textLength="8.4" lengthAdjust="spacingAndGlyphs">╚</text>
<text class="crt" x="16.8" y="140" fill="#01D0FE" textLength="8.4" lengthAdjust="spacingAndGlyphs">═</text>
<text class="crt" x="25.2" y="140" fill="#02CFFE" textLength="8.4" lengthAdjust="spacingAndGlyphs">═</text>
<text class="crt" x="33.6" y="140" fill="#02CEFD" textLength="8.4" lengthAdjust="spacingAndGlyphs">═</text>
<text class="crt" x="42" y="140" fill="#03CDFD" textLength="8.4" lengthAdjust="spacingAndGlyphs">═</text>
<text class="crt" x="50.4" y="140" fill="#04CCFC" textLength="8.4" lengthAdjust="spacingAndGlyphs">═</text>
<text class="crt" x="58.8" y="140" fill="#04CBFC" textLength="8.4" lengthAdjust="spacingAndGlyphs">╝</text>
<text class="crt" x="75.6" y="140" fill="#06CAFB" textLength="8.4" lengthAdjust="spacingAndGlyphs">╚</text>
<text class="crt" x="84" y="140" fill="#06C9FA" textLength="8.4" lengthAdjust="spacingAndGlyphs">═</text>
<text class="crt" x="92.4" y="140" fill="#07C8FA" textLength="8.4" lengthAdjust="spacingAndGlyphs">═</text>
<text class="crt" x="100.8" y="140" fill="#07C7FA" textLength="8.4" lengthAdjust="spacingAndGlyphs">═</text>
<text class="crt" x="109.2" y="140" fill="#08C6F9" textLength="8.4" lengthAdjust="spacingAndGlyphs">═</text>
<text class="crt" x="117.6" y="140" fill="#09C5F9" textLength="8.4" lengthAdjust="spacingAndGlyphs">═</text>
<text class="crt" x="126" y="140" fill="#09C4F8" textLength="8.4" lengthAdjust="spacingAndGlyphs">╝</text>
<text class="crt" x="142.8" y="140" fill="#0BC2F7" textLength="8.4" lengthAdjust="spacingAndGlyphs">╚</text>
<text class="crt" x="151.2" y="140" fill="#0BC1F7" textLength="8.4" lengthAdjust="spacingAndGlyphs">═</text>
<text class="crt" x="159.6" y="140" fill="#0CC0F6" textLength="8.4" lengthAdjust="spacingAndGlyphs">╝</text>
<text class="crt" x="184.8" y="140" fill="#0EBDF5" textLength="8.4" lengthAdjust="spacingAndGlyphs">╚</text>
<text class="crt" x="193.2" y="140" fill="#0EBCF5" textLength="8.4" lengthAdjust="spacingAndGlyphs">═</text>
<text class="crt" x="201.6" y="140" fill="#0FBCF4" textLength="8.4" lengthAdjust="spacingAndGlyphs">═</text>
<text class="crt" x="210" y="140" fill="#10BBF4" textLength="8.4" lengthAdjust="spacingAndGlyphs">═</text>
<text class="crt" x="218.4" y="140" fill="#10BAF3" textLength="8.4" lengthAdjust="spacingAndGlyphs">╝</text>
<text class="crt" x="226.8" y="140" fill="#11B9F3" textLength="8.4" lengthAdjust="spacingAndGlyphs">╚</text>
<text class="crt" x="235.2" y="140" fill="#11B8F2" textLength="8.4" lengthAdjust="spacingAndGlyphs">═</text>
<text class="crt" x="243.6" y="140" fill="#12B7F2" textLength="8.4" lengthAdjust="spacingAndGlyphs">═</text>
<text class="crt" x="252" y="140" fill="#13B6F1" textLength="8.4" lengthAdjust="spacingAndGlyphs">═</text>
<text class="crt" x="260.4" y="140" fill="#13B5F1" textLength="8.4" lengthAdjust="spacingAndGlyphs">═</text>
<text class="crt" x="268.8" y="140" fill="#14B4F1" textLength="8.4" lengthAdjust="spacingAndGlyphs">═</text>
<text class="crt" x="277.2" y="140" fill="#15B3F0" textLength="8.4" lengthAdjust="spacingAndGlyphs">═</text>
<text class="crt" x="285.6" y="140" fill="#15B2F0" textLength="8.4" lengthAdjust="spacingAndGlyphs">╝</text>
<text class="crt" x="302.4" y="140" fill="#16B0EF" textLength="8.4" lengthAdjust="spacingAndGlyphs">╚</text>
<text class="crt" x="310.8" y="140" fill="#17AFEE" textLength="8.4" lengthAdjust="spacingAndGlyphs">═</text>
<text class="crt" x="319.2" y="140" fill="#18AEEE" textLength="8.4" lengthAdjust="spacingAndGlyphs">═</text>
<text class="crt" x="327.6" y="140" fill="#18AEED" textLength="8.4" lengthAdjust="spacingAndGlyphs">═</text>
<text class="crt" x="336" y="140" fill="#19ADED" textLength="8.4" lengthAdjust="spacingAndGlyphs">═</text>
<text class="crt" x="344.4" y="140" fill="#1AACEC" textLength="8.4" lengthAdjust="spacingAndGlyphs">═</text>
<text class="crt" x="352.8" y="140" fill="#1AABEC" textLength="8.4" lengthAdjust="spacingAndGlyphs">╝</text>
<text class="crt" x="369.6" y="140" fill="#1BA9EB" textLength="8.4" lengthAdjust="spacingAndGlyphs">╚</text>
<text class="crt" x="378" y="140" fill="#1CA8EB" textLength="8.4" lengthAdjust="spacingAndGlyphs">═</text>
<text class="crt" x="386.4" y="140" fill="#1DA7EA" textLength="8.4" lengthAdjust="spacingAndGlyphs">═</text>
<text class="crt" x="394.8" y="140" fill="#1DA6EA" textLength="8.4" lengthAdjust="spacingAndGlyphs">═</text>
<text class="crt" x="403.2" y="140" fill="#1EA5E9" textLength="8.4" lengthAdjust="spacingAndGlyphs">═</text>
<text class="crt" x="411.6" y="140" fill="#1FA4E9" textLength="8.4" lengthAdjust="spacingAndGlyphs">═</text>
<text class="crt" x="420" y="140" fill="#1FA3E8" textLength="8.4" lengthAdjust="spacingAndGlyphs">═</text>
<text class="crt" x="428.4" y="140" fill="#20A2E8" textLength="8.4" lengthAdjust="spacingAndGlyphs">╝</text>
<text class="crt" x="436.8" y="140" fill="#20A1E8" textLength="8.4" lengthAdjust="spacingAndGlyphs">╚</text>
<text class="crt" x="445.2" y="140" fill="#21A0E7" textLength="8.4" lengthAdjust="spacingAndGlyphs">═</text>
<text class="crt" x="453.6" y="140" fill="#229FE7" textLength="8.4" lengthAdjust="spacingAndGlyphs">═</text>
<text class="crt" x="462" y="140" fill="#229FE6" textLength="8.4" lengthAdjust="spacingAndGlyphs">═</text>
<text class="crt" x="470.4" y="140" fill="#239EE6" textLength="8.4" lengthAdjust="spacingAndGlyphs">═</text>
<text class="crt" x="478.8" y="140" fill="#249DE5" textLength="8.4" lengthAdjust="spacingAndGlyphs">═</text>
<text class="crt" x="487.2" y="140" fill="#249CE5" textLength="8.4" lengthAdjust="spacingAndGlyphs">═</text>
<text class="crt" x="495.6" y="140" fill="#259BE4" textLength="8.4" lengthAdjust="spacingAndGlyphs">╝</text>
<text class="crt" x="504" y="140" fill="#259AE4" textLength="8.4" lengthAdjust="spacingAndGlyphs">╚</text>
<text class="crt" x="512.4" y="140" fill="#2699E3" textLength="8.4" lengthAdjust="spacingAndGlyphs">═</text>
<text class="crt" x="520.8" y="140" fill="#2798E3" textLength="8.4" lengthAdjust="spacingAndGlyphs">═</text>
<text class="crt" x="529.2" y="140" fill="#2797E3" textLength="8.4" lengthAdjust="spacingAndGlyphs">═</text>
<text class="crt" x="537.6" y="140" fill="#2896E2" textLength="8.4" lengthAdjust="spacingAndGlyphs">═</text>
<text class="crt" x="546" y="140" fill="#2995E2" textLength="8.4" lengthAdjust="spacingAndGlyphs">═</text>
<text class="crt" x="554.4" y="140" fill="#2994E1" textLength="8.4" lengthAdjust="spacingAndGlyphs">═</text>
<text class="crt" x="562.8" y="140" fill="#2A93E1" textLength="8.4" lengthAdjust="spacingAndGlyphs">╝</text>
<text class="crt" x="571.2" y="140" fill="#2A92E0" textLength="8.4" lengthAdjust="spacingAndGlyphs">╚</text>
<text class="crt" x="579.6" y="140" fill="#2B91E0" textLength="8.4" lengthAdjust="spacingAndGlyphs">═</text>
<text class="crt" x="588" y="140" fill="#2C91DF" textLength="8.4" lengthAdjust="spacingAndGlyphs">═</text>
<text class="crt" x="596.4" y="140" fill="#2C90DF" textLength="8.4" lengthAdjust="spacingAndGlyphs">═</text>
<text class="crt" x="604.8" y="140" fill="#2D8FDE" textLength="8.4" lengthAdjust="spacingAndGlyphs">═</text>
<text class="crt" x="613.2" y="140" fill="#2E8EDE" textLength="8.4" lengthAdjust="spacingAndGlyphs">═</text>
<text class="crt" x="621.6" y="140" fill="#2E8DDE" textLength="8.4" lengthAdjust="spacingAndGlyphs">═</text>
<text class="crt" x="630" y="140" fill="#2F8CDD" textLength="8.4" lengthAdjust="spacingAndGlyphs">╝</text>
<text class="crt" x="655.2" y="140" fill="#3189DC" textLength="8.4" lengthAdjust="spacingAndGlyphs">╚</text>
<text class="crt" x="663.6" y="140" fill="#3188DB" textLength="8.4" lengthAdjust="spacingAndGlyphs">═</text>
<text class="crt" x="672" y="140" fill="#3287DB" textLength="8.4" lengthAdjust="spacingAndGlyphs">═</text>
<text class="crt" x="680.4" y="140" fill="#3386DA" textLength="8.4" lengthAdjust="spacingAndGlyphs">═</text>
<text class="crt" x="688.8" y="140" fill="#3385DA" textLength="8.4" lengthAdjust="spacingAndGlyphs">╝</text>
<text class="crt" x="722.4" y="140" fill="#3682D8" textLength="8.4" lengthAdjust="spacingAndGlyphs">╚</text>
<text class="crt" x="730.8" y="140" fill="#3681D8" textLength="8.4" lengthAdjust="spacingAndGlyphs">═</text>
<text class="crt" x="739.2" y="140" fill="#3780D7" textLength="8.4" lengthAdjust="spacingAndGlyphs">═</text>
<text class="crt" x="747.6" y="140" fill="#387FD7" textLength="8.4" lengthAdjust="spacingAndGlyphs">═</text>
<text class="crt" x="756" y="140" fill="#387ED6" textLength="8.4" lengthAdjust="spacingAndGlyphs">═</text>
<text class="crt" x="764.4" y="140" fill="#397DD6" textLength="8.4" lengthAdjust="spacingAndGlyphs">═</text>
<text class="crt" x="772.8" y="140" fill="#397CD5" textLength="8.4" lengthAdjust="spacingAndGlyphs">╝</text>
</g>
</g>
</svg>