<svg xmlns="http://www.w3.org/2000/svg" xmlns:xlink="http://www.w3.org/1999/xlink" viewBox="0 0 904 289" role="img" aria-label="console2svg output">
<style>.crt{font-family:ui-monospace,"Cascadia Mono","Segoe UI Mono","SFMono-Regular",Menlo,monospace;font-size:14px;}text{dominant-baseline:alphabetic;}.bg{shape-rendering:crispEdges;}</style>
<defs>
<linearGradient id="desktop-bg" x1="0%" y1="0%" x2="100%" y2="100%"><stop offset="0%" stop-color="#30a0d0"/><stop offset="100%" stop-color="#0060c0"/></linearGradient>
</defs>
<rect width="904" height="289" fill="url(#desktop-bg)"/>
<g opacity="0.95">
<rect x="26" y="26" rx="10" ry="10" width="858" height="243" fill="black" fill-opacity="0.3"/>
<rect x="20.5" y="20.5" rx="10" ry="10" width="857" height="242" fill="#1f1f1f" stroke="#3a3a3a"/>
<rect x="21" y="21" rx="9" ry="9" width="856" height="27" fill="#2c2c2c"/>
<circle cx="34" cy="34" r="5" fill="#ff5f57"/>
<circle cx="50" cy="34" r="5" fill="#febc2e"/>
<circle cx="66" cy="34" r="5" fill="#28c840"/>
<rect x="29" y="56" width="840" height="18" fill="#1e1e1e"/>
<text class="crt" x="29" y="70" fill="#d4d4d4">$ oh-my-logo console2svg mint --filled --letter-spacing 0</text>
<g transform="translate(29 74)">
<rect width="840" height="180" fill="#1e1e1e"/>
<rect class="bg" x="8.4" y="36" width="8.4" height="18" fill="#29b8db"/>
<rect class="bg" x="16.8" y="36" width="8.4" height="18" fill="#29b8db"/>
<rect class="bg" x="25.2" y="36" width="8.4" height="18" fill="#29b8db"/>
<rect class="bg" x="33.6" y="36" width="8.4" height="18" fill="#29b8db"/>
<rect class="bg" x="42" y="36" width="8.4" height="18" fill="#29b8db"/>
<rect class="bg" x="50.4" y="36" width="8.4" height="18" fill="#29b8db"/>
<text class="crt" x="58.8" y="50" fill="#29b8db" textLength="8.4" lengthAdjust="spacingAndGlyphs">╗</text>
<rect class="bg" x="75.6" y="36" width="8.4" height="18" fill="#29b8db"/>
<rect class="bg" x="84" y="36" width="8.4" height="18" fill="#29b8db"/>
<rect class="bg" x="92.4" y="36" width="8.4" height="18" fill="#29b8db"/>
<rect class="bg" x="100.8" y="36" width="8.4" height="18" fill="#29b8db"/>
<rect class="bg" x="109.2" y="36" width="8.4" height="18" fill="#29b8db"/>
<rect class="bg" x="117.6" y="36" width="8.4" height="18" fill="#29b8db"/>
<text class="crt" x="126" y="50" fill="#29b8db" textLength="8.4" lengthAdjust="spacingAndGlyphs">╗</text>
<rect class="bg" x="142.8" y="36" width="8.4" height="18" fill="#29b8db"/>
<rect class="bg" x="151.2" y="36" width="8.4" height="18" fill="#29b8db"/>
<rect class="bg" x="159.6" y="36" width="8.4" height="18" fill="#29b8db"/>
<text class="crt" x="168" y="50" fill="#29b8db" textLength="8.4" lengthAdjust="spacingAndGlyphs">╗</text>
<rect class="bg" x="201.6" y="36" width="8.4" height="18" fill="#29b8db"/>
<rect class="bg" x="210" y="36" width="8.4" height="18" fill="#29b8db"/>
<text class="crt" x="218.4" y="50" fill="#29b8db" textLength="8.4" lengthAdjust="spacingAndGlyphs">╗</text>
<rect class="bg" x="226.8" y="36" width="8.4" height="18" fill="#29b8db"/>
<rect class="bg" x="235.2" y="36" width="8.4" height="18" fill="#29b8db"/>
<rect class="bg" x="243.6" y="36" width="8.4" height="18" fill="#29b8db"/>
<rect class="bg" x="252" y="36" width="8.4" height="18" fill="#29b8db"/>
<rect class="bg" x="260.4" y="36" width="8.4" height="18" fill="#29b8db"/>
<rect class="bg" x="268.8" y="36" width="8.4" height="18" fill="#29b8db"/>
<rect class="bg" x="277.2" y="36" width="8.4" height="18" fill="#29b8db"/>
<text class="crt" x="285.6" y="50" fill="#29b8db" textLength="8.4" lengthAdjust="spacingAndGlyphs">╗</text>
<rect class="bg" x="302.4" y="36" width="8.4" height="18" fill="#29b8db"/>
<rect class="bg" x="310.8" y="36" width="8.4" height="18" fill="#29b8db"/>
<rect class="bg" x="319.2" y="36" width="8.4" height="18" fill="#29b8db"/>
<rect class="bg" x="327.6" y="36" width="8.4" height="18" fill="#29b8db"/>
<rect class="bg" x="336" y="36" width="8.4" height="18" fill="#29b8db"/>
<rect class="bg" x="344.4" y="36" width="8.4" height="18" fill="#29b8db"/>
<text class="crt" x="352.8" y="50" fill="#29b8db" textLength="8.4" lengthAdjust="spacingAndGlyphs">╗</text>
<rect class="bg" x="369.6" y="36" width="8.4" height="18" fill="#29b8db"/>
<rect class="bg" x="378" y="36" width="8.4" height="18" fill="#29b8db"/>
<text class="crt" x="386.4" y="50" fill="#29b8db" textLength="8.4" lengthAdjust="spacingAndGlyphs">╗</text>
<rect class="bg" x="436.8" y="36" width="8.4" height="18" fill="#29b8db"/>
<rect class="bg" x="445.2" y="36" width="8.4" height="18" fill="#29b8db"/>
<rect class="bg" x="453.6" y="36" width="8.4" height="18" fill="#29b8db"/>
<rect class="bg" x="462" y="36" width="8.4" height="18" fill="#29b8db"/>
<rect class="bg" x="470.4" y="36" width="8.4" height="18" fill="#29b8db"/>
<rect class="bg" x="478.8" y="36" width="8.4" height="18" fill="#29b8db"/>
<rect class="bg" x="487.2" y="36" width="8.4" height="18" fill="#29b8db"/>
<text class="crt" x="495.6" y="50" fill="#29b8db" textLength="8.4" lengthAdjust="spacingAndGlyphs">╗</text>
<rect class="bg" x="504" y="36" width="8.4" height="18" fill="#29b8db"/>
<rect class="bg" x="512.4" y="36" width="8.4" height="18" fill="#29b8db"/>
<rect class="bg" x="520.8" y="36" width="8.4" height="18" fill="#29b8db"/>
<rect class="bg" x="529.2" y="36" width="8.4" height="18" fill="#29b8db"/>
<rect class="bg" x="537.6" y="36" width="8.4" height="18" fill="#29b8db"/>
<rect class="bg" x="546" y="36" width="8.4" height="18" fill="#29b8db"/>
<text class="crt" x="554.4" y="50" fill="#29b8db" textLength="8.4" lengthAdjust="spacingAndGlyphs">╗</text>
<rect class="bg" x="571.2" y="36" width="8.4" height="18" fill="#29b8db"/>
<rect class="bg" x="579.6" y="36" width="8.4" height="18" fill="#29b8db"/>
<rect class="bg" x="588" y="36" width="8.4" height="18" fill="#29b8db"/>
<rect class="bg" x="596.4" y="36" width="8.4" height="18" fill="#29b8db"/>
<rect class="bg" x="604.8" y="36" width="8.4" height="18" fill="#29b8db"/>
<rect class="bg" x="613.2" y="36" width="8.4" height="18" fill="#29b8db"/>
<rect class="bg" x="621.6" y="36" width="8.4" height="18" fill="#29b8db"/>
<text class="crt" x="630" y="50" fill="#29b8db" textLength="8.4" lengthAdjust="spacingAndGlyphs">╗</text>
<rect class="bg" x="638.4" y="36" width="8.4" height="18" fill="#29b8db"/>
<rect class="bg" x="646.8" y="36" width="8.4" height="18" fill="#29b8db"/>
<text class="crt" x="655.2" y="50" fill="#29b8db" textLength="8.4" lengthAdjust="spacingAndGlyphs">╗</text>
<rect class="bg" x="688.8" y="36" width="8.4" height="18" fill="#29b8db"/>
<rect class="bg" x="697.2" y="36" width="8.4" height="18" fill="#29b8db"/>
<text class="crt" x="705.6" y="50" fill="#29b8db" textLength="8.4" lengthAdjust="spacingAndGlyphs">╗</text>
<rect class="bg" x="722.4" y="36" width="8.4" height="18" fill="#29b8db"/>
<rect class="bg" x="730.8" y="36" width="8.4" height="18" fill="#29b8db"/>
<rect class="bg" x="739.2" y="36" width="8.4" height="18" fill="#29b8db"/>
<rect class="bg" x="747.6" y="36" width="8.4" height="18" fill="#3b8eea"/>
<rect class="bg" x="756" y="36" width="8.4" height="18" fill="#3b8eea"/>
<rect class="bg" x="764.4" y="36" width="8.4" height="18" fill="#3b8eea"/>
<text class="crt" x="772.8" y="50" fill="#3b8eea" textLength="8.4" lengthAdjust="spacingAndGlyphs">╗</text>
<rect class="bg" x="0" y="54" width="8.4" height="18" fill="#29b8db"/>
<rect class="bg" x="8.4" y="54" width="8.4" height="18" fill="#29b8db"/>
<text class="crt" x="16.8" y="68" fill="#29b8db" textLength="50.4" lengthAdjust="spacingAndGlyphs">╔════╝</text>
<rect class="bg" x="67.2" y="54" width="8.4" height="18" fill="#29b8db"/>
<rect class="bg" x="75.6" y="54" width="8.4" height="18" fill="#29b8db"/>
<text class="crt" x="84" y="68" fill="#29b8db" textLength="33.6" lengthAdjust="spacingAndGlyphs">╔═══</text>
<rect class="bg" x="117.6" y="54" width="8.4" height="18" fill="#29b8db"/>
<rect class="bg" x="126" y="54" width="8.4" height="18" fill="#29b8db"/>
<text class="crt" x="134.4" y="68" fill="#29b8db" textLength="8.4" lengthAdjust="spacingAndGlyphs">╗</text>
<rect class="bg" x="142.8" y="54" width="8.4" height="18" fill="#29b8db"/>
<rect class="bg" x="151.2" y="54" width="8.4" height="18" fill="#29b8db"/>
<rect class="bg" x="159.6" y="54" width="8.4" height="18" fill="#29b8db"/>
<rect class="bg" x="168" y="54" width="8.4" height="18" fill="#29b8db"/>
<text class="crt" x="176.4" y="68" fill="#29b8db" textLength="8.4" lengthAdjust="spacingAndGlyphs">╗</text>
<rect class="bg" x="201.6" y="54" width="8.4" height="18" fill="#29b8db"/>
<rect class="bg" x="210" y="54" width="8.4" height="18" fill="#29b8db"/>
<text class="crt" x="218.4" y="68" fill="#29b8db" textLength="8.4" lengthAdjust="spacingAndGlyphs">║</text>
<rect class="bg" x="226.8" y="54" width="8.4" height="18" fill="#29b8db"/>
<rect class="bg" x="235.2" y="54" width="8.4" height="18" fill="#29b8db"/>
<text class="crt" x="243.6" y="68" fill="#29b8db" textLength="50.4" lengthAdjust="spacingAndGlyphs">╔════╝</text>
<rect class="bg" x="294" y="54" width="8.4" height="18" fill="#29b8db"/>
<rect class="bg" x="302.4" y="54" width="8.4" height="18" fill="#29b8db"/>
<text class="crt" x="310.8" y="68" fill="#29b8db" textLength="33.6" lengthAdjust="spacingAndGlyphs">╔═══</text>
<rect class="bg" x="344.4" y="54" width="8.4" height="18" fill="#29b8db"/>
<rect class="bg" x="352.8" y="54" width="8.4" height="18" fill="#29b8db"/>
<text class="crt" x="361.2" y="68" fill="#29b8db" textLength="8.4" lengthAdjust="spacingAndGlyphs">╗</text>
<rect class="bg" x="369.6" y="54" width="8.4" height="18" fill="#29b8db"/>
<rect class="bg" x="378" y="54" width="8.4" height="18" fill="#29b8db"/>
<text class="crt" x="386.4" y="68" fill="#29b8db" textLength="8.4" lengthAdjust="spacingAndGlyphs">║</text>
<rect class="bg" x="436.8" y="54" width="8.4" height="18" fill="#29b8db"/>
<rect class="bg" x="445.2" y="54" width="8.4" height="18" fill="#29b8db"/>
<text class="crt" x="453.6" y="68" fill="#29b8db" textLength="92.4" lengthAdjust="spacingAndGlyphs">╔════╝╚════</text>
<rect class="bg" x="546" y="54" width="8.4" height="18" fill="#29b8db"/>
<rect class="bg" x="554.4" y="54" width="8.4" height="18" fill="#29b8db"/>
<text class="crt" x="562.8" y="68" fill="#29b8db" textLength="8.4" lengthAdjust="spacingAndGlyphs">╗</text>
<rect class="bg" x="571.2" y="54" width="8.4" height="18" fill="#29b8db"/>
<rect class="bg" x="579.6" y="54" width="8.4" height="18" fill="#29b8db"/>
<text class="crt" x="588" y="68" fill="#29b8db" textLength="50.4" lengthAdjust="spacingAndGlyphs">╔════╝</text>
<rect class="bg" x="638.4" y="54" width="8.4" height="18" fill="#29b8db"/>
<rect class="bg" x="646.8" y="54" width="8.4" height="18" fill="#29b8db"/>
<text class="crt" x="655.2" y="68" fill="#29b8db" textLength="8.4" lengthAdjust="spacingAndGlyphs">║</text>
<rect class="bg" x="688.8" y="54" width="8.4" height="18" fill="#29b8db"/>
<rect class="bg" x="697.2" y="54" width="8.4" height="18" fill="#29b8db"/>
<text class="crt" x="705.6" y="68" fill="#29b8db" textLength="8.4" lengthAdjust="spacingAndGlyphs">║</text>
<rect class="bg" x="714" y="54" width="8.4" height="18" fill="#29b8db"/>
<rect class="bg" x="722.4" y="54" width="8.4" height="18" fill="#29b8db"/>
<text class="crt" x="730.8" y="68" fill="#29b8db" textLength="16.8" lengthAdjust="spacingAndGlyphs">╔═</text>
<text class="crt" x="747.6" y="68" fill="#3b8eea" textLength="33.6" lengthAdjust="spacingAndGlyphs">═══╝</text>
<rect class="bg" x="0" y="72" width="8.4" height="18" fill="#29b8db"/>
<rect class="bg" x="8.4" y="72" width="8.4" height="18" fill="#29b8db"/>
<text class="crt" x="16.8" y="86" fill="#29b8db" textLength="8.4" lengthAdjust="spacingAndGlyphs">║</text>
<rect class="bg" x="67.2" y="72" width="8.4" height="18" fill="#29b8db"/>
<rect class="bg" x="75.6" y="72" width="8.4" height="18" fill="#29b8db"/>
<text class="crt" x="84" y="86" fill="#29b8db" textLength="8.4" lengthAdjust="spacingAndGlyphs">║</text>
<rect class="bg" x="117.6" y="72" width="8.4" height="18" fill="#29b8db"/>
<rect class="bg" x="126" y="72" width="8.4" height="18" fill="#29b8db"/>
<text class="crt" x="134.4" y="86" fill="#29b8db" textLength="8.4" lengthAdjust="spacingAndGlyphs">║</text>
<rect class="bg" x="142.8" y="72" width="8.4" height="18" fill="#29b8db"/>
<rect class="bg" x="151.2" y="72" width="8.4" height="18" fill="#29b8db"/>
<text class="crt" x="159.6" y="86" fill="#29b8db" textLength="8.4" lengthAdjust="spacingAndGlyphs">╔</text>
<rect class="bg" x="168" y="72" width="8.4" height="18" fill="#29b8db"/>
<rect class="bg" x="176.4" y="72" width="8.4" height="18" fill="#29b8db"/>
<text class="crt" x="184.8" y="86" fill="#29b8db" textLength="8.4" lengthAdjust="spacingAndGlyphs">╗</text>
<rect class="bg" x="201.6" y="72" width="8.4" height="18" fill="#29b8db"/>
<rect class="bg" x="210" y="72" width="8.4" height="18" fill="#29b8db"/>
<text class="crt" x="218.4" y="86" fill="#29b8db" textLength="8.4" lengthAdjust="spacingAndGlyphs">║</text>
<rect class="bg" x="226.8" y="72" width="8.4" height="18" fill="#29b8db"/>
<rect class="bg" x="235.2" y="72" width="8.4" height="18" fill="#29b8db"/>
<rect class="bg" x="243.6" y="72" width="8.4" height="18" fill="#29b8db"/>
<rect class="bg" x="252" y="72" width="8.4" height="18" fill="#29b8db"/>
<rect class="bg" x="260.4" y="72" width="8.4" height="18" fill="#29b8db"/>
<rect class="bg" x="268.8" y="72" width="8.4" height="18" fill="#29b8db"/>
<rect class="bg" x="277.2" y="72" width="8.4" height="18" fill="#29b8db"/>
<text class="crt" x="285.6" y="86" fill="#29b8db" textLength="8.4" lengthAdjust="spacingAndGlyphs">╗</text>
<rect class="bg" x="294" y="72" width="8.4" height="18" fill="#29b8db"/>
<rect class="bg" x="302.4" y="72" width="8.4" height="18" fill="#29b8db"/>
<text class="crt" x="310.8" y="86" fill="#29b8db" textLength="8.4" lengthAdjust="spacingAndGlyphs">║</text>
<rect class="bg" x="344.4" y="72" width="8.4" height="18" fill="#29b8db"/>
<rect class="bg" x="352.8" y="72" width="8.4" height="18" fill="#29b8db"/>
<text class="crt" x="361.2" y="86" fill="#29b8db" textLength="8.4" lengthAdjust="spacingAndGlyphs">║</text>
<rect class="bg" x="369.6" y="72" width="8.4" height="18" fill="#29b8db"/>
<rect class="bg" x="378" y="72" width="8.4" height="18" fill="#29b8db"/>
<text class="crt" x="386.4" y="86" fill="#29b8db" textLength="8.4" lengthAdjust="spacingAndGlyphs">║</text>
<rect class="bg" x="436.8" y="72" width="8.4" height="18" fill="#29b8db"/>
<rect class="bg" x="445.2" y="72" width="8.4" height="18" fill="#29b8db"/>
<rect class="bg" x="453.6" y="72" width="8.4" height="18" fill="#29b8db"/>
<rect class="bg" x="462" y="72" width="8.4" height="18" fill="#29b8db"/>
<rect class="bg" x="470.4" y="72" width="8.4" height="18" fill="#29b8db"/>
<text class="crt" x="478.8" y="86" fill="#29b8db" textLength="8.4" lengthAdjust="spacingAndGlyphs">╗</text>
<rect class="bg" x="512.4" y="72" width="8.4" height="18" fill="#29b8db"/>
<rect class="bg" x="520.8" y="72" width="8.4" height="18" fill="#29b8db"/>
<rect class="bg" x="529.2" y="72" width="8.4" height="18" fill="#29b8db"/>
<rect class="bg" x="537.6" y="72" width="8.4" height="18" fill="#29b8db"/>
<rect class="bg" x="546" y="72" width="8.4" height="18" fill="#29b8db"/>
<text class="crt" x="554.4" y="86" fill="#29b8db" textLength="16.8" lengthAdjust="spacingAndGlyphs">╔╝</text>
<rect class="bg" x="571.2" y="72" width="8.4" height="18" fill="#29b8db"/>
<rect class="bg" x="579.6" y="72" width="8.4" height="18" fill="#29b8db"/>
<rect class="bg" x="588" y="72" width="8.4" height="18" fill="#29b8db"/>
<rect class="bg" x="596.4" y="72" width="8.4" height="18" fill="#29b8db"/>
<rect class="bg" x="604.8" y="72" width="8.4" height="18" fill="#29b8db"/>
<rect class="bg" x="613.2" y="72" width="8.4" height="18" fill="#29b8db"/>
<rect class="bg" x="621.6" y="72" width="8.4" height="18" fill="#29b8db"/>
<text class="crt" x="630" y="86" fill="#29b8db" textLength="8.4" lengthAdjust="spacingAndGlyphs">╗</text>
<rect class="bg" x="638.4" y="72" width="8.4" height="18" fill="#29b8db"/>
<rect class="bg" x="646.8" y="72" width="8.4" height="18" fill="#29b8db"/>
<text class="crt" x="655.2" y="86" fill="#29b8db" textLength="8.4" lengthAdjust="spacingAndGlyphs">║</text>
<rect class="bg" x="688.8" y="72" width="8.4" height="18" fill="#29b8db"/>
<rect class="bg" x="697.2" y="72" width="8.4" height="18" fill="#29b8db"/>
<text class="crt" x="705.6" y="86" fill="#29b8db" textLength="8.4" lengthAdjust="spacingAndGlyphs">║</text>
<rect class="bg" x="714" y="72" width="8.4" height="18" fill="#29b8db"/>
<rect class="bg" x="722.4" y="72" width="8.4" height="18" fill="#29b8db"/>
<text class="crt" x="730.8" y="86" fill="#29b8db" textLength="8.4" lengthAdjust="spacingAndGlyphs">║</text>
<rect class="bg" x="756" y="72" width="8.4" height="18" fill="#3b8eea"/>
<rect class="bg" x="764.4" y="72" width="8.4" height="18" fill="#3b8eea"/>
<rect class="bg" x="772.8" y="72" width="8.4" height="18" fill="#3b8eea"/>
<text class="crt" x="781.2" y="86" fill="#3b8eea" textLength="8.4" lengthAdjust="spacingAndGlyphs">╗</text>
<rect class="bg" x="0" y="90" width="8.4" height="18" fill="#29b8db"/>
<rect class="bg" x="8.4" y="90" width="8.4" height="18" fill="#29b8db"/>
<text class="crt" x="16.8" y="104" fill="#29b8db" textLength="8.4" lengthAdjust="spacingAndGlyphs">║</text>
<rect class="bg" x="67.2" y="90" width="8.4" height="18" fill="#29b8db"/>
<rect class="bg" x="75.6" y="90" width="8.4" height="18" fill="#29b8db"/>
<text class="crt" x="84" y="104" fill="#29b8db" textLength="8.4" lengthAdjust="spacingAndGlyphs">║</text>
<rect class="bg" x="117.6" y="90" width="8.4" height="18" fill="#29b8db"/>
<rect class="bg" x="126" y="90" width="8.4" height="18" fill="#29b8db"/>
<text class="crt" x="134.4" y="104" fill="#29b8db" textLength="8.4" lengthAdjust="spacingAndGlyphs">║</text>
<rect class="bg" x="142.8" y="90" width="8.4" height="18" fill="#29b8db"/>
<rect class="bg" x="151.2" y="90" width="8.4" height="18" fill="#29b8db"/>
<text class="crt" x="159.6" y="104" fill="#29b8db" textLength="16.8" lengthAdjust="spacingAndGlyphs">║╚</text>
<rect class="bg" x="176.4" y="90" width="8.4" height="18" fill="#29b8db"/>
<rect class="bg" x="184.8" y="90" width="8.4" height="18" fill="#29b8db"/>
<text class="crt" x="193.2" y="104" fill="#29b8db" textLength="8.4" lengthAdjust="spacingAndGlyphs">╗</text>
<rect class="bg" x="201.6" y="90" width="8.4" height="18" fill="#29b8db"/>
<rect class="bg" x="210" y="90" width="8.4" height="18" fill="#29b8db"/>
<text class="crt" x="218.4" y="104" fill="#29b8db" textLength="50.4" lengthAdjust="spacingAndGlyphs">║╚════</text>
<rect class="bg" x="268.8" y="90" width="8.4" height="18" fill="#29b8db"/>
<rect class="bg" x="277.2" y="90" width="8.4" height="18" fill="#29b8db"/>
<text class="crt" x="285.6" y="104" fill="#29b8db" textLength="8.4" lengthAdjust="spacingAndGlyphs">║</text>
<rect class="bg" x="294" y="90" width="8.4" height="18" fill="#29b8db"/>
<rect class="bg" x="302.4" y="90" width="8.4" height="18" fill="#29b8db"/>
<text class="crt" x="310.8" y="104" fill="#29b8db" textLength="8.4" lengthAdjust="spacingAndGlyphs">║</text>
<rect class="bg" x="344.4" y="90" width="8.4" height="18" fill="#29b8db"/>
<rect class="bg" x="352.8" y="90" width="8.4" height="18" fill="#29b8db"/>
<text class="crt" x="361.2" y="104" fill="#29b8db" textLength="8.4" lengthAdjust="spacingAndGlyphs">║</text>
<rect class="bg" x="369.6" y="90" width="8.4" height="18" fill="#29b8db"/>
<rect class="bg" x="378" y="90" width="8.4" height="18" fill="#29b8db"/>
<text class="crt" x="386.4" y="104" fill="#29b8db" textLength="8.4" lengthAdjust="spacingAndGlyphs">║</text>
<rect class="bg" x="436.8" y="90" width="8.4" height="18" fill="#29b8db"/>
<rect class="bg" x="445.2" y="90" width="8.4" height="18" fill="#29b8db"/>
<text class="crt" x="453.6" y="104" fill="#29b8db" textLength="33.6" lengthAdjust="spacingAndGlyphs">╔══╝</text>
<rect class="bg" x="504" y="90" width="8.4" height="18" fill="#29b8db"/>
<rect class="bg" x="512.4" y="90" width="8.4" height="18" fill="#29b8db"/>
<text class="crt" x="520.8" y="104" fill="#29b8db" textLength="42" lengthAdjust="spacingAndGlyphs">╔═══╝</text>
<text class="crt" x="571.2" y="104" fill="#29b8db" textLength="42" lengthAdjust="spacingAndGlyphs">╚════</text>
<rect class="bg" x="613.2" y="90" width="8.4" height="18" fill="#29b8db"/>
<rect class="bg" x="621.6" y="90" width="8.4" height="18" fill="#29b8db"/>
<text class="crt" x="630" y="104" fill="#29b8db" textLength="16.8" lengthAdjust="spacingAndGlyphs">║╚</text>
<rect class="bg" x="646.8" y="90" width="8.4" height="18" fill="#29b8db"/>
<rect class="bg" x="655.2" y="90" width="8.4" height="18" fill="#29b8db"/>
<text class="crt" x="663.6" y="104" fill="#29b8db" textLength="8.4" lengthAdjust="spacingAndGlyphs">╗</text>
<rect class="bg" x="680.4" y="90" width="8.4" height="18" fill="#29b8db"/>
<rect class="bg" x="688.8" y="90" width="8.4" height="18" fill="#29b8db"/>
<text class="crt" x="697.2" y="104" fill="#29b8db" textLength="16.8" lengthAdjust="spacingAndGlyphs">╔╝</text>
<rect class="bg" x="714" y="90" width="8.4" height="18" fill="#29b8db"/>
<rect class="bg" x="722.4" y="90" width="8.4" height="18" fill="#29b8db"/>
<text class="crt" x="730.8" y="104" fill="#29b8db" textLength="8.4" lengthAdjust="spacingAndGlyphs">║</text>
<rect class="bg" x="764.4" y="90" width="8.4" height="18" fill="#3b8eea"/>
<rect class="bg" x="772.8" y="90" width="8.4" height="18" fill="#3b8eea"/>
<text class="crt" x="781.2" y="104" fill="#3b8eea" textLength="8.4" lengthAdjust="spacingAndGlyphs">║</text>
<text class="crt" x="0" y="122" fill="#29b8db" textLength="8.4" lengthAdjust="spacingAndGlyphs">╚</text>
<rect class="bg" x="8.4" y="108" width="8.4" height="18" fill="#29b8db"/>
<rect class="bg" x="16.8" y="108" width="8.4" height="18" fill="#29b8db"/>
<rect class="bg" x="25.2" y="108" width="8.4" height="18" fill="#29b8db"/>
<rect class="bg" x="33.6" y="108" width="8.4" height="18" fill="#29b8db"/>
<rect class="bg" x="42" y="108" width="8.4" height="18" fill="#29b8db"/>
<rect class="bg" x="50.4" y="108" width="8.4" height="18" fill="#29b8db"/>
<text class="crt" x="58.8" y="122" fill="#29b8db" textLength="16.8" lengthAdjust="spacingAndGlyphs">╗╚</text>
<rect class="bg" x="75.6" y="108" width="8.4" height="18" fill="#29b8db"/>
<rect class="bg" x="84" y="108" width="8.4" height="18" fill="#29b8db"/>
<rect class="bg" x="92.4" y="108" width="8.4" height="18" fill="#29b8db"/>
<rect class="bg" x="100.8" y="108" width="8.4" height="18" fill="#29b8db"/>
<rect class="bg" x="109.2" y="108" width="8.4" height="18" fill="#29b8db"/>
<rect class="bg" x="117.6" y="108" width="8.4" height="18" fill="#29b8db"/>
<text class="crt" x="126" y="122" fill="#29b8db" textLength="16.8" lengthAdjust="spacingAndGlyphs">╔╝</text>
<rect class="bg" x="142.8" y="108" width="8.4" height="18" fill="#29b8db"/>
<rect class="bg" x="151.2" y="108" width="8.4" height="18" fill="#29b8db"/>
<text class="crt" x="159.6" y="122" fill="#29b8db" textLength="8.4" lengthAdjust="spacingAndGlyphs">║</text>
<text class="crt" x="176.4" y="122" fill="#29b8db" textLength="8.4" lengthAdjust="spacingAndGlyphs">╚</text>
<rect class="bg" x="184.8" y="108" width="8.4" height="18" fill="#29b8db"/>
<rect class="bg" x="193.2" y="108" width="8.4" height="18" fill="#29b8db"/>
<rect class="bg" x="201.6" y="108" width="8.4" height="18" fill="#29b8db"/>
<rect class="bg" x="210" y="108" width="8.4" height="18" fill="#29b8db"/>
<text class="crt" x="218.4" y="122" fill="#29b8db" textLength="8.4" lengthAdjust="spacingAndGlyphs">║</text>
<rect class="bg" x="226.8" y="108" width="8.4" height="18" fill="#29b8db"/>
<rect class="bg" x="235.2" y="108" width="8.4" height="18" fill="#29b8db"/>
<rect class="bg" x="243.6" y="108" width="8.4" height="18" fill="#29b8db"/>
<rect class="bg" x="252" y="108" width="8.4" height="18" fill="#29b8db"/>
<rect class="bg" x="260.4" y="108" width="8.4" height="18" fill="#29b8db"/>
<rect class="bg" x="268.8" y="108" width="8.4" height="18" fill="#29b8db"/>
<rect class="bg" x="277.2" y="108" width="8.4" height="18" fill="#29b8db"/>
<text class="crt" x="285.6" y="122" fill="#29b8db" textLength="16.8" lengthAdjust="spacingAndGlyphs">║╚</text>
<rect class="bg" x="302.4" y="108" width="8.4" height="18" fill="#29b8db"/>
<rect class="bg" x="310.8" y="108" width="8.4" height="18" fill="#29b8db"/>
<rect class="bg" x="319.2" y="108" width="8.4" height="18" fill="#29b8db"/>
<rect class="bg" x="327.6" y="108" width="8.4" height="18" fill="#29b8db"/>
<rect class="bg" x="336" y="108" width="8.4" height="18" fill="#29b8db"/>
<rect class="bg" x="344.4" y="108" width="8.4" height="18" fill="#29b8db"/>
<text class="crt" x="352.8" y="122" fill="#29b8db" textLength="16.8" lengthAdjust="spacingAndGlyphs">╔╝</text>
<rect class="bg" x="369.6" y="108" width="8.4" height="18" fill="#29b8db"/>
<rect class="bg" x="378" y="108" width="8.4" height="18" fill="#29b8db"/>
<rect class="bg" x="386.4" y="108" width="8.4" height="18" fill="#29b8db"/>
<rect class="bg" x="394.8" y="108" width="8.4" height="18" fill="#29b8db"/>
<rect class="bg" x="403.2" y="108" width="8.4" height="18" fill="#29b8db"/>
<rect class="bg" x="411.6" y="108" width="8.4" height="18" fill="#29b8db"/>
<rect class="bg" x="420" y="108" width="8.4" height="18" fill="#29b8db"/>
<text class="crt" x="428.4" y="122" fill="#29b8db" textLength="8.4" lengthAdjust="spacingAndGlyphs">╗</text>
<rect class="bg" x="436.8" y="108" width="8.4" height="18" fill="#29b8db"/>
<rect class="bg" x="445.2" y="108" width="8.4" height="18" fill="#29b8db"/>
<rect class="bg" x="453.6" y="108" width="8.4" height="18" fill="#29b8db"/>
<rect class="bg" x="462" y="108" width="8.4" height="18" fill="#29b8db"/>
<rect class="bg" x="470.4" y="108" width="8.4" height="18" fill="#29b8db"/>
<rect class="bg" x="478.8" y="108" width="8.4" height="18" fill="#29b8db"/>
<rect class="bg" x="487.2" y="108" width="8.4" height="18" fill="#29b8db"/>
<text class="crt" x="495.6" y="122" fill="#29b8db" textLength="8.4" lengthAdjust="spacingAndGlyphs">╗</text>
<rect class="bg" x="504" y="108" width="8.4" height="18" fill="#29b8db"/>
<rect class="bg" x="512.4" y="108" width="8.4" height="18" fill="#29b8db"/>
<rect class="bg" x="520.8" y="108" width="8.4" height="18" fill="#29b8db"/>
<rect class="bg" x="529.2" y="108" width="8.4" height="18" fill="#29b8db"/>
<rect class="bg" x="537.6" y="108" width="8.4" height="18" fill="#29b8db"/>
<rect class="bg" x="546" y="108" width="8.4" height="18" fill="#29b8db"/>
<rect class="bg" x="554.4" y="108" width="8.4" height="18" fill="#29b8db"/>
<text class="crt" x="562.8" y="122" fill="#29b8db" textLength="8.4" lengthAdjust="spacingAndGlyphs">╗</text>
<rect class="bg" x="571.2" y="108" width="8.4" height="18" fill="#29b8db"/>
<rect class="bg" x="579.6" y="108" width="8.4" height="18" fill="#29b8db"/>
<rect class="bg" x="588" y="108" width="8.4" height="18" fill="#29b8db"/>
<rect class="bg" x="596.4" y="108" width="8.4" height="18" fill="#29b8db"/>
<rect class="bg" x="604.8" y="108" width="8.4" height="18" fill="#29b8db"/>
<rect class="bg" x="613.2" y="108" width="8.4" height="18" fill="#29b8db"/>
<rect class="bg" x="621.6" y="108" width="8.4" height="18" fill="#29b8db"/>
<text class="crt" x="630" y="122" fill="#29b8db" textLength="8.4" lengthAdjust="spacingAndGlyphs">║</text>
<text class="crt" x="646.8" y="122" fill="#29b8db" textLength="8.4" lengthAdjust="spacingAndGlyphs">╚</text>
<rect class="bg" x="655.2" y="108" width="8.4" height="18" fill="#29b8db"/>
<rect class="bg" x="663.6" y="108" width="8.4" height="18" fill="#29b8db"/>
<rect class="bg" x="672" y="108" width="8.4" height="18" fill="#29b8db"/>
<rect class="bg" x="680.4" y="108" width="8.4" height="18" fill="#29b8db"/>
<text class="crt" x="688.8" y="122" fill="#29b8db" textLength="16.8" lengthAdjust="spacingAndGlyphs">╔╝</text>
<text class="crt" x="714" y="122" fill="#29b8db" textLength="8.4" lengthAdjust="spacingAndGlyphs">╚</text>
<rect class="bg" x="722.4" y="108" width="8.4" height="18" fill="#29b8db"/>
<rect class="bg" x="730.8" y="108" width="8.4" height="18" fill="#29b8db"/>
<rect class="bg" x="739.2" y="108" width="8.4" height="18" fill="#29b8db"/>
<rect class="bg" x="747.6" y="108" width="8.4" height="18" fill="#3b8eea"/>
<rect class="bg" x="756" y="108" width="8.4" height="18" fill="#3b8eea"/>
<rect class="bg" x="764.4" y="108" width="8.4" height="18" fill="#3b8eea"/>
<text class="crt" x="772.8" y="122" fill="#3b8eea" textLength="16.8" lengthAdjust="spacingAndGlyphs">╔╝</text>
<text class="crt" x="8.4" y="140" fill="#29b8db" textLength="58.8" lengthAdjust="spacingAndGlyphs">╚═════╝</text>
<text class="crt" x="75.6" y="140" fill="#29b8db" textLength="58.8" lengthAdjust="spacingAndGlyphs">╚═════╝</text>
<text class="crt" x="142.8" y="140" fill="#29b8db" textLength="25.2" lengthAdjust="spacingAndGlyphs">╚═╝</text>
<text class="crt" x="184.8" y="140" fill="#29b8db" textLength="109.2" lengthAdjust="spacingAndGlyphs">╚═══╝╚══════╝</text>
<text class="crt" x="302.4" y="140" fill="#29b8db" textLength="58.8" lengthAdjust="spacingAndGlyphs">╚═════╝</text>
<text class="crt" x="369.6" y="140" fill="#29b8db" textLength="268.8" lengthAdjust="spacingAndGlyphs">╚══════╝╚══════╝╚══════╝╚══════╝</text>
<text class="crt" x="655.2" y="140" fill="#29b8db" textLength="42" lengthAdjust="spacingAndGlyphs">╚═══╝</text>
<text class="crt" x="722.4" y="140" fill="#29b8db" textLength="25.2" lengthAdjust="spacingAndGlyphs">╚══</text>
<text class="crt" x="747.6" y="140" fill="#3b8eea" textLength="33.6" lengthAdjust="spacingAndGlyphs">═══╝</text>
</g>
</g>
</svg>