<svg xmlns="http://www.w3.org/2000/svg" xmlns:xlink="http://www.w3.org/1999/xlink" viewBox="0 0 966 291" role="img" aria-label="console2svg output">
<style>.crt{font-family:ui-monospace,"Cascadia Mono","Segoe UI Mono","SFMono-Regular",Menlo,monospace;font-size:14px;}text{dominant-baseline:alphabetic;}.bg{shape-rendering:crispEdges;}</style>
<rect width="966" height="291" fill="#1e2030"/>
<rect x="28" y="28" rx="10" ry="10" width="918" height="243" fill="black" fill-opacity="0.4"/>
<rect x="20.5" y="20.5" rx="10" ry="10" width="917" height="242" fill="#1f1f1f" stroke="#3a3a3a"/>
<rect x="21" y="21" rx="9" ry="9" width="916" height="27" fill="#2c2c2c"/>
<circle cx="34" cy="34" r="5" fill="#ff5f57"/>
<circle cx="50" cy="34" r="5" fill="#febc2e"/>
<circle cx="66" cy="34" r="5" fill="#28c840"/>
<rect x="29" y="74" width="900" height="180" fill="#1e1e1e"/>
<rect x="29" y="56" width="900" height="18" fill="#1e1e1e"/>
<text class="crt" x="29" y="70" fill="#d4d4d4">$ oh-my-logo console2svg mint --filled --letter-spacing 0</text>
<g transform="translate(29 74)">
<rect width="900" height="180" fill="#1e1e1e"/>
<rect class="bg" x="9" y="36" width="9" height="18" fill="#01D1FF"/>
<rect class="bg" x="18" y="36" width="9" height="18" fill="#01D0FE"/>
<rect class="bg" x="27" y="36" width="9" height="18" fill="#02CFFE"/>
<rect class="bg" x="36" y="36" width="9" height="18" fill="#02CEFD"/>
<rect class="bg" x="45" y="36" width="9" height="18" fill="#03CDFD"/>
<rect class="bg" x="54" y="36" width="9" height="18" fill="#04CCFC"/>
<text class="crt" x="63" y="50" fill="#04CBFC">╗</text>
<rect class="bg" x="81" y="36" width="9" height="18" fill="#06CAFB"/>
<rect class="bg" x="90" y="36" width="9" height="18" fill="#06C9FA"/>
<rect class="bg" x="99" y="36" width="9" height="18" fill="#07C8FA"/>
<rect class="bg" x="108" y="36" width="9" height="18" fill="#07C7FA"/>
<rect class="bg" x="117" y="36" width="9" height="18" fill="#08C6F9"/>
<rect class="bg" x="126" y="36" width="9" height="18" fill="#09C5F9"/>
<text class="crt" x="135" y="50" fill="#09C4F8">╗</text>
<rect class="bg" x="153" y="36" width="9" height="18" fill="#0BC2F7"/>
<rect class="bg" x="162" y="36" width="9" height="18" fill="#0BC1F7"/>
<rect class="bg" x="171" y="36" width="9" height="18" fill="#0CC0F6"/>
<text class="crt" x="180" y="50" fill="#0CBFF6">╗</text>
<rect class="bg" x="216" y="36" width="9" height="18" fill="#0FBCF4"/>
<rect class="bg" x="225" y="36" width="9" height="18" fill="#10BBF4"/>
<text class="crt" x="234" y="50" fill="#10BAF3">╗</text>
<rect class="bg" x="243" y="36" width="9" height="18" fill="#11B9F3"/>
<rect class="bg" x="252" y="36" width="9" height="18" fill="#11B8F2"/>
<rect class="bg" x="261" y="36" width="9" height="18" fill="#12B7F2"/>
<rect class="bg" x="270" y="36" width="9" height="18" fill="#13B6F1"/>
<rect class="bg" x="279" y="36" width="9" height="18" fill="#13B5F1"/>
<rect class="bg" x="288" y="36" width="9" height="18" fill="#14B4F1"/>
<rect class="bg" x="297" y="36" width="9" height="18" fill="#15B3F0"/>
<text class="crt" x="306" y="50" fill="#15B2F0">╗</text>
<rect class="bg" x="324" y="36" width="9" height="18" fill="#16B0EF"/>
<rect class="bg" x="333" y="36" width="9" height="18" fill="#17AFEE"/>
<rect class="bg" x="342" y="36" width="9" height="18" fill="#18AEEE"/>
<rect class="bg" x="351" y="36" width="9" height="18" fill="#18AEED"/>
<rect class="bg" x="360" y="36" width="9" height="18" fill="#19ADED"/>
<rect class="bg" x="369" y="36" width="9" height="18" fill="#1AACEC"/>
<text class="crt" x="378" y="50" fill="#1AABEC">╗</text>
<rect class="bg" x="396" y="36" width="9" height="18" fill="#1BA9EB"/>
<rect class="bg" x="405" y="36" width="9" height="18" fill="#1CA8EB"/>
<text class="crt" x="414" y="50" fill="#1DA7EA">╗</text>
<rect class="bg" x="468" y="36" width="9" height="18" fill="#20A1E8"/>
<rect class="bg" x="477" y="36" width="9" height="18" fill="#21A0E7"/>
<rect class="bg" x="486" y="36" width="9" height="18" fill="#229FE7"/>
<rect class="bg" x="495" y="36" width="9" height="18" fill="#229FE6"/>
<rect class="bg" x="504" y="36" width="9" height="18" fill="#239EE6"/>
<rect class="bg" x="513" y="36" width="9" height="18" fill="#249DE5"/>
<rect class="bg" x="522" y="36" width="9" height="18" fill="#249CE5"/>
<text class="crt" x="531" y="50" fill="#259BE4">╗</text>
<rect class="bg" x="540" y="36" width="9" height="18" fill="#259AE4"/>
<rect class="bg" x="549" y="36" width="9" height="18" fill="#2699E3"/>
<rect class="bg" x="558" y="36" width="9" height="18" fill="#2798E3"/>
<rect class="bg" x="567" y="36" width="9" height="18" fill="#2797E3"/>
<rect class="bg" x="576" y="36" width="9" height="18" fill="#2896E2"/>
<rect class="bg" x="585" y="36" width="9" height="18" fill="#2995E2"/>
<text class="crt" x="594" y="50" fill="#2994E1">╗</text>
<rect class="bg" x="612" y="36" width="9" height="18" fill="#2A92E0"/>
<rect class="bg" x="621" y="36" width="9" height="18" fill="#2B91E0"/>
<rect class="bg" x="630" y="36" width="9" height="18" fill="#2C91DF"/>
<rect class="bg" x="639" y="36" width="9" height="18" fill="#2C90DF"/>
<rect class="bg" x="648" y="36" width="9" height="18" fill="#2D8FDE"/>
<rect class="bg" x="657" y="36" width="9" height="18" fill="#2E8EDE"/>
<rect class="bg" x="666" y="36" width="9" height="18" fill="#2E8DDE"/>
<text class="crt" x="675" y="50" fill="#2F8CDD">╗</text>
<rect class="bg" x="684" y="36" width="9" height="18" fill="#2F8BDD"/>
<rect class="bg" x="693" y="36" width="9" height="18" fill="#308ADC"/>
<text class="crt" x="702" y="50" fill="#3189DC">╗</text>
<rect class="bg" x="738" y="36" width="9" height="18" fill="#3385DA"/>
<rect class="bg" x="747" y="36" width="9" height="18" fill="#3484DA"/>
<text class="crt" x="756" y="50" fill="#3483D9">╗</text>
<rect class="bg" x="774" y="36" width="9" height="18" fill="#3682D8"/>
<rect class="bg" x="783" y="36" width="9" height="18" fill="#3681D8"/>
<rect class="bg" x="792" y="36" width="9" height="18" fill="#3780D7"/>
<rect class="bg" x="801" y="36" width="9" height="18" fill="#387FD7"/>
<rect class="bg" x="810" y="36" width="9" height="18" fill="#387ED6"/>
<rect class="bg" x="819" y="36" width="9" height="18" fill="#397DD6"/>
<text class="crt" x="828" y="50" fill="#397CD5">╗</text>
<rect class="bg" x="0" y="54" width="9" height="18" fill="#00D2FF"/>
<rect class="bg" x="9" y="54" width="9" height="18" fill="#01D1FF"/>
<text class="crt" x="18" y="68" fill="#01D0FE">╔</text>
<text class="crt" x="27" y="68" fill="#02CFFE">═</text>
<text class="crt" x="36" y="68" fill="#02CEFD">═</text>
<text class="crt" x="45" y="68" fill="#03CDFD">═</text>
<text class="crt" x="54" y="68" fill="#04CCFC">═</text>
<text class="crt" x="63" y="68" fill="#04CBFC">╝</text>
<rect class="bg" x="72" y="54" width="9" height="18" fill="#05CBFB"/>
<rect class="bg" x="81" y="54" width="9" height="18" fill="#06CAFB"/>
<text class="crt" x="90" y="68" fill="#06C9FA">╔</text>
<text class="crt" x="99" y="68" fill="#07C8FA">═</text>
<text class="crt" x="108" y="68" fill="#07C7FA">═</text>
<text class="crt" x="117" y="68" fill="#08C6F9">═</text>
<rect class="bg" x="126" y="54" width="9" height="18" fill="#09C5F9"/>
<rect class="bg" x="135" y="54" width="9" height="18" fill="#09C4F8"/>
<text class="crt" x="144" y="68" fill="#0AC3F8">╗</text>
<rect class="bg" x="153" y="54" width="9" height="18" fill="#0BC2F7"/>
<rect class="bg" x="162" y="54" width="9" height="18" fill="#0BC1F7"/>
<rect class="bg" x="171" y="54" width="9" height="18" fill="#0CC0F6"/>
<rect class="bg" x="180" y="54" width="9" height="18" fill="#0CBFF6"/>
<text class="crt" x="189" y="68" fill="#0DBEF6">╗</text>
<rect class="bg" x="216" y="54" width="9" height="18" fill="#0FBCF4"/>
<rect class="bg" x="225" y="54" width="9" height="18" fill="#10BBF4"/>
<text class="crt" x="234" y="68" fill="#10BAF3">║</text>
<rect class="bg" x="243" y="54" width="9" height="18" fill="#11B9F3"/>
<rect class="bg" x="252" y="54" width="9" height="18" fill="#11B8F2"/>
<text class="crt" x="261" y="68" fill="#12B7F2">╔</text>
<text class="crt" x="270" y="68" fill="#13B6F1">═</text>
<text class="crt" x="279" y="68" fill="#13B5F1">═</text>
<text class="crt" x="288" y="68" fill="#14B4F1">═</text>
<text class="crt" x="297" y="68" fill="#15B3F0">═</text>
<text class="crt" x="306" y="68" fill="#15B2F0">╝</text>
<rect class="bg" x="315" y="54" width="9" height="18" fill="#16B1EF"/>
<rect class="bg" x="324" y="54" width="9" height="18" fill="#16B0EF"/>
<text class="crt" x="333" y="68" fill="#17AFEE">╔</text>
<text class="crt" x="342" y="68" fill="#18AEEE">═</text>
<text class="crt" x="351" y="68" fill="#18AEED">═</text>
<text class="crt" x="360" y="68" fill="#19ADED">═</text>
<rect class="bg" x="369" y="54" width="9" height="18" fill="#1AACEC"/>
<rect class="bg" x="378" y="54" width="9" height="18" fill="#1AABEC"/>
<text class="crt" x="387" y="68" fill="#1BAAEC">╗</text>
<rect class="bg" x="396" y="54" width="9" height="18" fill="#1BA9EB"/>
<rect class="bg" x="405" y="54" width="9" height="18" fill="#1CA8EB"/>
<text class="crt" x="414" y="68" fill="#1DA7EA">║</text>
<rect class="bg" x="468" y="54" width="9" height="18" fill="#20A1E8"/>
<rect class="bg" x="477" y="54" width="9" height="18" fill="#21A0E7"/>
<text class="crt" x="486" y="68" fill="#229FE7">╔</text>
<text class="crt" x="495" y="68" fill="#229FE6">═</text>
<text class="crt" x="504" y="68" fill="#239EE6">═</text>
<text class="crt" x="513" y="68" fill="#249DE5">═</text>
<text class="crt" x="522" y="68" fill="#249CE5">═</text>
<text class="crt" x="531" y="68" fill="#259BE4">╝</text>
<text class="crt" x="540" y="68" fill="#259AE4">╚</text>
<text class="crt" x="549" y="68" fill="#2699E3">═</text>
<text class="crt" x="558" y="68" fill="#2798E3">═</text>
<text class="crt" x="567" y="68" fill="#2797E3">═</text>
<text class="crt" x="576" y="68" fill="#2896E2">═</text>
<rect class="bg" x="585" y="54" width="9" height="18" fill="#2995E2"/>
<rect class="bg" x="594" y="54" width="9" height="18" fill="#2994E1"/>
<text class="crt" x="603" y="68" fill="#2A93E1">╗</text>
<rect class="bg" x="612" y="54" width="9" height="18" fill="#2A92E0"/>
<rect class="bg" x="621" y="54" width="9" height="18" fill="#2B91E0"/>
<text class="crt" x="630" y="68" fill="#2C91DF">╔</text>
<text class="crt" x="639" y="68" fill="#2C90DF">═</text>
<text class="crt" x="648" y="68" fill="#2D8FDE">═</text>
<text class="crt" x="657" y="68" fill="#2E8EDE">═</text>
<text class="crt" x="666" y="68" fill="#2E8DDE">═</text>
<text class="crt" x="675" y="68" fill="#2F8CDD">╝</text>
<rect class="bg" x="684" y="54" width="9" height="18" fill="#2F8BDD"/>
<rect class="bg" x="693" y="54" width="9" height="18" fill="#308ADC"/>
<text class="crt" x="702" y="68" fill="#3189DC">║</text>
<rect class="bg" x="738" y="54" width="9" height="18" fill="#3385DA"/>
<rect class="bg" x="747" y="54" width="9" height="18" fill="#3484DA"/>
<text class="crt" x="756" y="68" fill="#3483D9">║</text>
<rect class="bg" x="765" y="54" width="9" height="18" fill="#3582D9"/>
<rect class="bg" x="774" y="54" width="9" height="18" fill="#3682D8"/>
<text class="crt" x="783" y="68" fill="#3681D8">╔</text>
<text class="crt" x="792" y="68" fill="#3780D7">═</text>
<text class="crt" x="801" y="68" fill="#387FD7">═</text>
<text class="crt" x="810" y="68" fill="#387ED6">═</text>
<text class="crt" x="819" y="68" fill="#397DD6">═</text>
<text class="crt" x="828" y="68" fill="#397CD5">╝</text>
<rect class="bg" x="0" y="72" width="9" height="18" fill="#00D2FF"/>
<rect class="bg" x="9" y="72" width="9" height="18" fill="#01D1FF"/>
<text class="crt" x="18" y="86" fill="#01D0FE">║</text>
<rect class="bg" x="72" y="72" width="9" height="18" fill="#05CBFB"/>
<rect class="bg" x="81" y="72" width="9" height="18" fill="#06CAFB"/>
<text class="crt" x="90" y="86" fill="#06C9FA">║</text>
<rect class="bg" x="126" y="72" width="9" height="18" fill="#09C5F9"/>
<rect class="bg" x="135" y="72" width="9" height="18" fill="#09C4F8"/>
<text class="crt" x="144" y="86" fill="#0AC3F8">║</text>
<rect class="bg" x="153" y="72" width="9" height="18" fill="#0BC2F7"/>
<rect class="bg" x="162" y="72" width="9" height="18" fill="#0BC1F7"/>
<text class="crt" x="171" y="86" fill="#0CC0F6">╔</text>
<rect class="bg" x="180" y="72" width="9" height="18" fill="#0CBFF6"/>
<rect class="bg" x="189" y="72" width="9" height="18" fill="#0DBEF6"/>
<text class="crt" x="198" y="86" fill="#0EBDF5">╗</text>
<rect class="bg" x="216" y="72" width="9" height="18" fill="#0FBCF4"/>
<rect class="bg" x="225" y="72" width="9" height="18" fill="#10BBF4"/>
<text class="crt" x="234" y="86" fill="#10BAF3">║</text>
<rect class="bg" x="243" y="72" width="9" height="18" fill="#11B9F3"/>
<rect class="bg" x="252" y="72" width="9" height="18" fill="#11B8F2"/>
<rect class="bg" x="261" y="72" width="9" height="18" fill="#12B7F2"/>
<rect class="bg" x="270" y="72" width="9" height="18" fill="#13B6F1"/>
<rect class="bg" x="279" y="72" width="9" height="18" fill="#13B5F1"/>
<rect class="bg" x="288" y="72" width="9" height="18" fill="#14B4F1"/>
<rect class="bg" x="297" y="72" width="9" height="18" fill="#15B3F0"/>
<text class="crt" x="306" y="86" fill="#15B2F0">╗</text>
<rect class="bg" x="315" y="72" width="9" height="18" fill="#16B1EF"/>
<rect class="bg" x="324" y="72" width="9" height="18" fill="#16B0EF"/>
<text class="crt" x="333" y="86" fill="#17AFEE">║</text>
<rect class="bg" x="369" y="72" width="9" height="18" fill="#1AACEC"/>
<rect class="bg" x="378" y="72" width="9" height="18" fill="#1AABEC"/>
<text class="crt" x="387" y="86" fill="#1BAAEC">║</text>
<rect class="bg" x="396" y="72" width="9" height="18" fill="#1BA9EB"/>
<rect class="bg" x="405" y="72" width="9" height="18" fill="#1CA8EB"/>
<text class="crt" x="414" y="86" fill="#1DA7EA">║</text>
<rect class="bg" x="468" y="72" width="9" height="18" fill="#20A1E8"/>
<rect class="bg" x="477" y="72" width="9" height="18" fill="#21A0E7"/>
<rect class="bg" x="486" y="72" width="9" height="18" fill="#229FE7"/>
<rect class="bg" x="495" y="72" width="9" height="18" fill="#229FE6"/>
<rect class="bg" x="504" y="72" width="9" height="18" fill="#239EE6"/>
<text class="crt" x="513" y="86" fill="#249DE5">╗</text>
<rect class="bg" x="549" y="72" width="9" height="18" fill="#2699E3"/>
<rect class="bg" x="558" y="72" width="9" height="18" fill="#2798E3"/>
<rect class="bg" x="567" y="72" width="9" height="18" fill="#2797E3"/>
<rect class="bg" x="576" y="72" width="9" height="18" fill="#2896E2"/>
<rect class="bg" x="585" y="72" width="9" height="18" fill="#2995E2"/>
<text class="crt" x="594" y="86" fill="#2994E1">╔</text>
<text class="crt" x="603" y="86" fill="#2A93E1">╝</text>
<rect class="bg" x="612" y="72" width="9" height="18" fill="#2A92E0"/>
<rect class="bg" x="621" y="72" width="9" height="18" fill="#2B91E0"/>
<rect class="bg" x="630" y="72" width="9" height="18" fill="#2C91DF"/>
<rect class="bg" x="639" y="72" width="9" height="18" fill="#2C90DF"/>
<rect class="bg" x="648" y="72" width="9" height="18" fill="#2D8FDE"/>
<rect class="bg" x="657" y="72" width="9" height="18" fill="#2E8EDE"/>
<rect class="bg" x="666" y="72" width="9" height="18" fill="#2E8DDE"/>
<text class="crt" x="675" y="86" fill="#2F8CDD">╗</text>
<rect class="bg" x="684" y="72" width="9" height="18" fill="#2F8BDD"/>
<rect class="bg" x="693" y="72" width="9" height="18" fill="#308ADC"/>
<text class="crt" x="702" y="86" fill="#3189DC">║</text>
<rect class="bg" x="738" y="72" width="9" height="18" fill="#3385DA"/>
<rect class="bg" x="747" y="72" width="9" height="18" fill="#3484DA"/>
<text class="crt" x="756" y="86" fill="#3483D9">║</text>
<rect class="bg" x="765" y="72" width="9" height="18" fill="#3582D9"/>
<rect class="bg" x="774" y="72" width="9" height="18" fill="#3682D8"/>
<text class="crt" x="783" y="86" fill="#3681D8">║</text>
<rect class="bg" x="810" y="72" width="9" height="18" fill="#387ED6"/>
<rect class="bg" x="819" y="72" width="9" height="18" fill="#397DD6"/>
<rect class="bg" x="828" y="72" width="9" height="18" fill="#397CD5"/>
<text class="crt" x="837" y="86" fill="#3A7BD5">╗</text>
<rect class="bg" x="0" y="90" width="9" height="18" fill="#00D2FF"/>
<rect class="bg" x="9" y="90" width="9" height="18" fill="#01D1FF"/>
<text class="crt" x="18" y="104" fill="#01D0FE">║</text>
<rect class="bg" x="72" y="90" width="9" height="18" fill="#05CBFB"/>
<rect class="bg" x="81" y="90" width="9" height="18" fill="#06CAFB"/>
<text class="crt" x="90" y="104" fill="#06C9FA">║</text>
<rect class="bg" x="126" y="90" width="9" height="18" fill="#09C5F9"/>
<rect class="bg" x="135" y="90" width="9" height="18" fill="#09C4F8"/>
<text class="crt" x="144" y="104" fill="#0AC3F8">║</text>
<rect class="bg" x="153" y="90" width="9" height="18" fill="#0BC2F7"/>
<rect class="bg" x="162" y="90" width="9" height="18" fill="#0BC1F7"/>
<text class="crt" x="171" y="104" fill="#0CC0F6">║</text>
<text class="crt" x="180" y="104" fill="#0CBFF6">╚</text>
<rect class="bg" x="189" y="90" width="9" height="18" fill="#0DBEF6"/>
<rect class="bg" x="198" y="90" width="9" height="18" fill="#0EBDF5"/>
<text class="crt" x="207" y="104" fill="#0EBCF5">╗</text>
<rect class="bg" x="216" y="90" width="9" height="18" fill="#0FBCF4"/>
<rect class="bg" x="225" y="90" width="9" height="18" fill="#10BBF4"/>
<text class="crt" x="234" y="104" fill="#10BAF3">║</text>
<text class="crt" x="243" y="104" fill="#11B9F3">╚</text>
<text class="crt" x="252" y="104" fill="#11B8F2">═</text>
<text class="crt" x="261" y="104" fill="#12B7F2">═</text>
<text class="crt" x="270" y="104" fill="#13B6F1">═</text>
<text class="crt" x="279" y="104" fill="#13B5F1">═</text>
<rect class="bg" x="288" y="90" width="9" height="18" fill="#14B4F1"/>
<rect class="bg" x="297" y="90" width="9" height="18" fill="#15B3F0"/>
<text class="crt" x="306" y="104" fill="#15B2F0">║</text>
<rect class="bg" x="315" y="90" width="9" height="18" fill="#16B1EF"/>
<rect class="bg" x="324" y="90" width="9" height="18" fill="#16B0EF"/>
<text class="crt" x="333" y="104" fill="#17AFEE">║</text>
<rect class="bg" x="369" y="90" width="9" height="18" fill="#1AACEC"/>
<rect class="bg" x="378" y="90" width="9" height="18" fill="#1AABEC"/>
<text class="crt" x="387" y="104" fill="#1BAAEC">║</text>
<rect class="bg" x="396" y="90" width="9" height="18" fill="#1BA9EB"/>
<rect class="bg" x="405" y="90" width="9" height="18" fill="#1CA8EB"/>
<text class="crt" x="414" y="104" fill="#1DA7EA">║</text>
<rect class="bg" x="468" y="90" width="9" height="18" fill="#20A1E8"/>
<rect class="bg" x="477" y="90" width="9" height="18" fill="#21A0E7"/>
<text class="crt" x="486" y="104" fill="#229FE7">╔</text>
<text class="crt" x="495" y="104" fill="#229FE6">═</text>
<text class="crt" x="504" y="104" fill="#239EE6">═</text>
<text class="crt" x="513" y="104" fill="#249DE5">╝</text>
<rect class="bg" x="540" y="90" width="9" height="18" fill="#259AE4"/>
<rect class="bg" x="549" y="90" width="9" height="18" fill="#2699E3"/>
<text class="crt" x="558" y="104" fill="#2798E3">╔</text>
<text class="crt" x="567" y="104" fill="#2797E3">═</text>
<text class="crt" x="576" y="104" fill="#2896E2">═</text>
<text class="crt" x="585" y="104" fill="#2995E2">═</text>
<text class="crt" x="594" y="104" fill="#2994E1">╝</text>
<text class="crt" x="612" y="104" fill="#2A92E0">╚</text>
<text class="crt" x="621" y="104" fill="#2B91E0">═</text>
<text class="crt" x="630" y="104" fill="#2C91DF">═</text>
<text class="crt" x="639" y="104" fill="#2C90DF">═</text>
<text class="crt" x="648" y="104" fill="#2D8FDE">═</text>
<rect class="bg" x="657" y="90" width="9" height="18" fill="#2E8EDE"/>
<rect class="bg" x="666" y="90" width="9" height="18" fill="#2E8DDE"/>
<text class="crt" x="675" y="104" fill="#2F8CDD">║</text>
<text class="crt" x="684" y="104" fill="#2F8BDD">╚</text>
<rect class="bg" x="693" y="90" width="9" height="18" fill="#308ADC"/>
<rect class="bg" x="702" y="90" width="9" height="18" fill="#3189DC"/>
<text class="crt" x="711" y="104" fill="#3188DB">╗</text>
<rect class="bg" x="729" y="90" width="9" height="18" fill="#3386DA"/>
<rect class="bg" x="738" y="90" width="9" height="18" fill="#3385DA"/>
<text class="crt" x="747" y="104" fill="#3484DA">╔</text>
<text class="crt" x="756" y="104" fill="#3483D9">╝</text>
<rect class="bg" x="765" y="90" width="9" height="18" fill="#3582D9"/>
<rect class="bg" x="774" y="90" width="9" height="18" fill="#3682D8"/>
<text class="crt" x="783" y="104" fill="#3681D8">║</text>
<rect class="bg" x="819" y="90" width="9" height="18" fill="#397DD6"/>
<rect class="bg" x="828" y="90" width="9" height="18" fill="#397CD5"/>
<text class="crt" x="837" y="104" fill="#3A7BD5">║</text>
<text class="crt" x="0" y="122" fill="#00D2FF">╚</text>
<rect class="bg" x="9" y="108" width="9" height="18" fill="#01D1FF"/>
<rect class="bg" x="18" y="108" width="9" height="18" fill="#01D0FE"/>
<rect class="bg" x="27" y="108" width="9" height="18" fill="#02CFFE"/>
<rect class="bg" x="36" y="108" width="9" height="18" fill="#02CEFD"/>
<rect class="bg" x="45" y="108" width="9" height="18" fill="#03CDFD"/>
<rect class="bg" x="54" y="108" width="9" height="18" fill="#04CCFC"/>
<text class="crt" x="63" y="122" fill="#04CBFC">╗</text>
<text class="crt" x="72" y="122" fill="#05CBFB">╚</text>
<rect class="bg" x="81" y="108" width="9" height="18" fill="#06CAFB"/>
<rect class="bg" x="90" y="108" width="9" height="18" fill="#06C9FA"/>
<rect class="bg" x="99" y="108" width="9" height="18" fill="#07C8FA"/>
<rect class="bg" x="108" y="108" width="9" height="18" fill="#07C7FA"/>
<rect class="bg" x="117" y="108" width="9" height="18" fill="#08C6F9"/>
<rect class="bg" x="126" y="108" width="9" height="18" fill="#09C5F9"/>
<text class="crt" x="135" y="122" fill="#09C4F8">╔</text>
<text class="crt" x="144" y="122" fill="#0AC3F8">╝</text>
<rect class="bg" x="153" y="108" width="9" height="18" fill="#0BC2F7"/>
<rect class="bg" x="162" y="108" width="9" height="18" fill="#0BC1F7"/>
<text class="crt" x="171" y="122" fill="#0CC0F6">║</text>
<text class="crt" x="189" y="122" fill="#0DBEF6">╚</text>
<rect class="bg" x="198" y="108" width="9" height="18" fill="#0EBDF5"/>
<rect class="bg" x="207" y="108" width="9" height="18" fill="#0EBCF5"/>
<rect class="bg" x="216" y="108" width="9" height="18" fill="#0FBCF4"/>
<rect class="bg" x="225" y="108" width="9" height="18" fill="#10BBF4"/>
<text class="crt" x="234" y="122" fill="#10BAF3">║</text>
<rect class="bg" x="243" y="108" width="9" height="18" fill="#11B9F3"/>
<rect class="bg" x="252" y="108" width="9" height="18" fill="#11B8F2"/>
<rect class="bg" x="261" y="108" width="9" height="18" fill="#12B7F2"/>
<rect class="bg" x="270" y="108" width="9" height="18" fill="#13B6F1"/>
<rect class="bg" x="279" y="108" width="9" height="18" fill="#13B5F1"/>
<rect class="bg" x="288" y="108" width="9" height="18" fill="#14B4F1"/>
<rect class="bg" x="297" y="108" width="9" height="18" fill="#15B3F0"/>
<text class="crt" x="306" y="122" fill="#15B2F0">║</text>
<text class="crt" x="315" y="122" fill="#16B1EF">╚</text>
<rect class="bg" x="324" y="108" width="9" height="18" fill="#16B0EF"/>
<rect class="bg" x="333" y="108" width="9" height="18" fill="#17AFEE"/>
<rect class="bg" x="342" y="108" width="9" height="18" fill="#18AEEE"/>
<rect class="bg" x="351" y="108" width="9" height="18" fill="#18AEED"/>
<rect class="bg" x="360" y="108" width="9" height="18" fill="#19ADED"/>
<rect class="bg" x="369" y="108" width="9" height="18" fill="#1AACEC"/>
<text class="crt" x="378" y="122" fill="#1AABEC">╔</text>
<text class="crt" x="387" y="122" fill="#1BAAEC">╝</text>
<rect class="bg" x="396" y="108" width="9" height="18" fill="#1BA9EB"/>
<rect class="bg" x="405" y="108" width="9" height="18" fill="#1CA8EB"/>
<rect class="bg" x="414" y="108" width="9" height="18" fill="#1DA7EA"/>
<rect class="bg" x="423" y="108" width="9" height="18" fill="#1DA6EA"/>
<rect class="bg" x="432" y="108" width="9" height="18" fill="#1EA5E9"/>
<rect class="bg" x="441" y="108" width="9" height="18" fill="#1FA4E9"/>
<rect class="bg" x="450" y="108" width="9" height="18" fill="#1FA3E8"/>
<text class="crt" x="459" y="122" fill="#20A2E8">╗</text>
<rect class="bg" x="468" y="108" width="9" height="18" fill="#20A1E8"/>
<rect class="bg" x="477" y="108" width="9" height="18" fill="#21A0E7"/>
<rect class="bg" x="486" y="108" width="9" height="18" fill="#229FE7"/>
<rect class="bg" x="495" y="108" width="9" height="18" fill="#229FE6"/>
<rect class="bg" x="504" y="108" width="9" height="18" fill="#239EE6"/>
<rect class="bg" x="513" y="108" width="9" height="18" fill="#249DE5"/>
<rect class="bg" x="522" y="108" width="9" height="18" fill="#249CE5"/>
<text class="crt" x="531" y="122" fill="#259BE4">╗</text>
<rect class="bg" x="540" y="108" width="9" height="18" fill="#259AE4"/>
<rect class="bg" x="549" y="108" width="9" height="18" fill="#2699E3"/>
<rect class="bg" x="558" y="108" width="9" height="18" fill="#2798E3"/>
<rect class="bg" x="567" y="108" width="9" height="18" fill="#2797E3"/>
<rect class="bg" x="576" y="108" width="9" height="18" fill="#2896E2"/>
<rect class="bg" x="585" y="108" width="9" height="18" fill="#2995E2"/>
<rect class="bg" x="594" y="108" width="9" height="18" fill="#2994E1"/>
<text class="crt" x="603" y="122" fill="#2A93E1">╗</text>
<rect class="bg" x="612" y="108" width="9" height="18" fill="#2A92E0"/>
<rect class="bg" x="621" y="108" width="9" height="18" fill="#2B91E0"/>
<rect class="bg" x="630" y="108" width="9" height="18" fill="#2C91DF"/>
<rect class="bg" x="639" y="108" width="9" height="18" fill="#2C90DF"/>
<rect class="bg" x="648" y="108" width="9" height="18" fill="#2D8FDE"/>
<rect class="bg" x="657" y="108" width="9" height="18" fill="#2E8EDE"/>
<rect class="bg" x="666" y="108" width="9" height="18" fill="#2E8DDE"/>
<text class="crt" x="675" y="122" fill="#2F8CDD">║</text>
<text class="crt" x="693" y="122" fill="#308ADC">╚</text>
<rect class="bg" x="702" y="108" width="9" height="18" fill="#3189DC"/>
<rect class="bg" x="711" y="108" width="9" height="18" fill="#3188DB"/>
<rect class="bg" x="720" y="108" width="9" height="18" fill="#3287DB"/>
<rect class="bg" x="729" y="108" width="9" height="18" fill="#3386DA"/>
<text class="crt" x="738" y="122" fill="#3385DA">╔</text>
<text class="crt" x="747" y="122" fill="#3484DA">╝</text>
<text class="crt" x="765" y="122" fill="#3582D9">╚</text>
<rect class="bg" x="774" y="108" width="9" height="18" fill="#3682D8"/>
<rect class="bg" x="783" y="108" width="9" height="18" fill="#3681D8"/>
<rect class="bg" x="792" y="108" width="9" height="18" fill="#3780D7"/>
<rect class="bg" x="801" y="108" width="9" height="18" fill="#387FD7"/>
<rect class="bg" x="810" y="108" width="9" height="18" fill="#387ED6"/>
<rect class="bg" x="819" y="108" width="9" height="18" fill="#397DD6"/>
<text class="crt" x="828" y="122" fill="#397CD5">╔</text>
<text class="crt" x="837" y="122" fill="#3A7BD5">╝</text>
<text class="crt" x="9" y="140" fill="#01D1FF">╚</text>
<text class="crt" x="18" y="140" fill="#01D0FE">═</text>
<text class="crt" x="27" y="140" fill="#02CFFE">═</text>
<text class="crt" x="36" y="140" fill="#02CEFD">═</text>
<text class="crt" x="45" y="140" fill="#03CDFD">═</text>
<text class="crt" x="54" y="140" fill="#04CCFC">═</text>
<text class="crt" x="63" y="140" fill="#04CBFC">╝</text>
<text class="crt" x="81" y="140" fill="#06CAFB">╚</text>
<text class="crt" x="90" y="140" fill="#06C9FA">═</text>
<text class="crt" x="99" y="140" fill="#07C8FA">═</text>
<text class="crt" x="108" y="140" fill="#07C7FA">═</text>
<text class="crt" x="117" y="140" fill="#08C6F9">═</text>
<text class="crt" x="126" y="140" fill="#09C5F9">═</text>
<text class="crt" x="135" y="140" fill="#09C4F8">╝</text>
<text class="crt" x="153" y="140" fill="#0BC2F7">╚</text>
<text class="crt" x="162" y="140" fill="#0BC1F7">═</text>
<text class="crt" x="171" y="140" fill="#0CC0F6">╝</text>
<text class="crt" x="198" y="140" fill="#0EBDF5">╚</text>
<text class="crt" x="207" y="140" fill="#0EBCF5">═</text>
<text class="crt" x="216" y="140" fill="#0FBCF4">═</text>
<text class="crt" x="225" y="140" fill="#10BBF4">═</text>
<text class="crt" x="234" y="140" fill="#10BAF3">╝</text>
<text class="crt" x="243" y="140" fill="#11B9F3">╚</text>
<text class="crt" x="252" y="140" fill="#11B8F2">═</text>
<text class="crt" x="261" y="140" fill="#12B7F2">═</text>
<text class="crt" x="270" y="140" fill="#13B6F1">═</text>
<text class="crt" x="279" y="140" fill="#13B5F1">═</text>
<text class="crt" x="288" y="140" fill="#14B4F1">═</text>
<text class="crt" x="297" y="140" fill="#15B3F0">═</text>
<text class="crt" x="306" y="140" fill="#15B2F0">╝</text>
<text class="crt" x="324" y="140" fill="#16B0EF">╚</text>
<text class="crt" x="333" y="140" fill="#17AFEE">═</text>
<text class="crt" x="342" y="140" fill="#18AEEE">═</text>
<text class="crt" x="351" y="140" fill="#18AEED">═</text>
<text class="crt" x="360" y="140" fill="#19ADED">═</text>
<text class="crt" x="369" y="140" fill="#1AACEC">═</text>
<text class="crt" x="378" y="140" fill="#1AABEC">╝</text>
<text class="crt" x="396" y="140" fill="#1BA9EB">╚</text>
<text class="crt" x="405" y="140" fill="#1CA8EB">═</text>
<text class="crt" x="414" y="140" fill="#1DA7EA">═</text>
<text class="crt" x="423" y="140" fill="#1DA6EA">═</text>
<text class="crt" x="432" y="140" fill="#1EA5E9">═</text>
<text class="crt" x="441" y="140" fill="#1FA4E9">═</text>
<text class="crt" x="450" y="140" fill="#1FA3E8">═</text>
<text class="crt" x="459" y="140" fill="#20A2E8">╝</text>
<text class="crt" x="468" y="140" fill="#20A1E8">╚</text>
<text class="crt" x="477" y="140" fill="#21A0E7">═</text>
<text class="crt" x="486" y="140" fill="#229FE7">═</text>
<text class="crt" x="495" y="140" fill="#229FE6">═</text>
<text class="crt" x="504" y="140" fill="#239EE6">═</text>
<text class="crt" x="513" y="140" fill="#249DE5">═</text>
<text class="crt" x="522" y="140" fill="#249CE5">═</text>
<text class="crt" x="531" y="140" fill="#259BE4">╝</text>
<text class="crt" x="540" y="140" fill="#259AE4">╚</text>
<text class="crt" x="549" y="140" fill="#2699E3">═</text>
<text class="crt" x="558" y="140" fill="#2798E3">═</text>
<text class="crt" x="567" y="140" fill="#2797E3">═</text>
<text class="crt" x="576" y="140" fill="#2896E2">═</text>
<text class="crt" x="585" y="140" fill="#2995E2">═</text>
<text class="crt" x="594" y="140" fill="#2994E1">═</text>
<text class="crt" x="603" y="140" fill="#2A93E1">╝</text>
<text class="crt" x="612" y="140" fill="#2A92E0">╚</text>
<text class="crt" x="621" y="140" fill="#2B91E0">═</text>
<text class="crt" x="630" y="140" fill="#2C91DF">═</text>
<text class="crt" x="639" y="140" fill="#2C90DF">═</text>
<text class="crt" x="648" y="140" fill="#2D8FDE">═</text>
<text class="crt" x="657" y="140" fill="#2E8EDE">═</text>
<text class="crt" x="666" y="140" fill="#2E8DDE">═</text>
<text class="crt" x="675" y="140" fill="#2F8CDD">╝</text>
<text class="crt" x="702" y="140" fill="#3189DC">╚</text>
<text class="crt" x="711" y="140" fill="#3188DB">═</text>
<text class="crt" x="720" y="140" fill="#3287DB">═</text>
<text class="crt" x="729" y="140" fill="#3386DA">═</text>
<text class="crt" x="738" y="140" fill="#3385DA">╝</text>
<text class="crt" x="774" y="140" fill="#3682D8">╚</text>
<text class="crt" x="783" y="140" fill="#3681D8">═</text>
<text class="crt" x="792" y="140" fill="#3780D7">═</text>
<text class="crt" x="801" y="140" fill="#387FD7">═</text>
<text class="crt" x="810" y="140" fill="#387ED6">═</text>
<text class="crt" x="819" y="140" fill="#397DD6">═</text>
<text class="crt" x="828" y="140" fill="#397CD5">╝</text>
</g>
</svg>