<svg xmlns="http://www.w3.org/2000/svg" width="858" height="405" viewBox="0 0 858 405" role="img" aria-label="console2svg output">
<style>
.c2.c { font-family: "JetBrains Mono","Cascadia Mono","Segoe UI Mono","Noto Sans Mono","SFMono-Regular",Menlo,Consolas,"DejaVu Sans Mono","Liberation Mono",monospace; font-size: 14px; }
.c2 text { dominant-baseline: alphabetic; }
.c2 .q { shape-rendering: crispEdges; }
.c2 .c2b { animation: c2b 1s step-start infinite; }

.c2 .w { white-space: pre; }
.c2 .aa{fill:#d4d4d4}
.c2 .ab{fill:#1e1e1e}
.c2 .ac{fill:#F63B3B;font-weight:bold}
@keyframes c2b { 50% { visibility: hidden; } }
</style><rect x="0.5" y="0.5" rx="10" ry="10" width="857" height="404" fill="#1f1f1f" stroke="#3a3a3a"/>
<rect x="1" y="1" rx="9" ry="9" width="856" height="27" fill="#2c2c2c"/>
<circle cx="14" cy="14" r="5" fill="#ff5f57"/>
<circle cx="30" cy="14" r="5" fill="#febc2e"/>
<circle cx="46" cy="14" r="5" fill="#28c840"/>
<rect x="1" y="28" width="856" height="376" rx="9" ry="9" fill="#1e1e1e"/>
<defs>
<g id="c2r0" class="c2 c">
<rect width="840" height="18" id="c2e0" fill="#1e1e1e"/>
<text class="aa" y="14" textLength="8.4">$</text>
</g>
<g id="c2r1" class="c2 c">
<use href="#c2e0"/>
</g>
<g id="c2r2" class="c2 c">
<use href="#c2e0"/>
<rect class="q" x="537.6" width="294" height="18" id="c2e1" fill="#87D787" stroke="#87D787" stroke-width="2" vector-effect="non-scaling-stroke"/>
<text class="aa" y="14" textLength="8.4">$</text>
<text class="ab w" x="554.4" y="14" textLength="260.4">F9: Record start   F10: Capture</text>
</g>
<g id="c2r3" class="c2 c">
<use href="#c2e0"/>
<rect class="q" x="739.2" width="92.4" height="18" id="c2e2" fill="#87D787" stroke="#87D787" stroke-width="2" vector-effect="non-scaling-stroke"/>
<text class="aa" y="14" textLength="8.4">$</text>
<text class="ab" x="756" y="14" textLength="58.8">Started</text>
</g>
<g id="c2r4" class="c2 c">
<use href="#c2e0"/>
<rect class="q" x="588" width="243.6" height="18" id="c2e3" fill="#303030" stroke="#303030" stroke-width="2" vector-effect="non-scaling-stroke"/>
<text class="aa" y="14" textLength="8.4">$</text>
<text class="ac w" x="604.8" y="14" textLength="210">● REC (F9:End, F12:Pause)</text>
</g>
<g id="c2r5" class="c2 c"><use href="#c2r4"/>
<g transform="translate(16.8)">
<rect width="8.4" height="18" id="c2e4" fill="#1e1e1e" stroke="#1e1e1e" stroke-width="2" vector-effect="non-scaling-stroke"/>
<text class="aa" y="14" textLength="8.4">e</text>
</g>
</g>
<g id="c2r6" class="c2 c"><use href="#c2r5"/>
<g transform="translate(25.2)">
<use href="#c2e4"/>
<text class="aa" y="14" textLength="8.4">c</text>
</g>
</g>
<g id="c2r7" class="c2 c"><use href="#c2r6"/>
<g transform="translate(33.6)">
<rect width="16.8" height="18" id="c2e5" fill="#1e1e1e" stroke="#1e1e1e" stroke-width="2" vector-effect="non-scaling-stroke"/>
<text class="aa" y="14" textLength="16.8">ho</text>
</g>
</g>
<g id="c2r8" class="c2 c"><use href="#c2r7"/>
<g transform="translate(58.8)">
<use href="#c2e4"/>
<text class="aa" y="14" textLength="8.4">&quot;</text>
</g>
</g>
<g id="c2r9" class="c2 c">
<use href="#c2e0"/>
<use href="#c2e3"/>
<text class="aa w" y="14" textLength="75.6">$ echo &quot;i</text>
<text class="ac w" x="604.8" y="14" textLength="210">● REC (F9:End, F12:Pause)</text>
</g>
<g id="c2r10" class="c2 c"><use href="#c2r9"/>
<g transform="translate(75.6)">
<rect width="25.2" height="18" id="c2e6" fill="#1e1e1e" stroke="#1e1e1e" stroke-width="2" vector-effect="non-scaling-stroke"/>
<text class="aa" y="14" textLength="25.2">nte</text>
</g>
</g>
<g id="c2r11" class="c2 c"><use href="#c2r10"/>
<g transform="translate(100.8)">
<use href="#c2e4"/>
<text class="aa" y="14" textLength="8.4">r</text>
</g>
</g>
<g id="c2r12" class="c2 c"><use href="#c2r11"/>
<g transform="translate(109.2)">
<use href="#c2e4"/>
<text class="aa" y="14" textLength="8.4">a</text>
</g>
</g>
<g id="c2r13" class="c2 c"><use href="#c2r12"/>
<g transform="translate(117.6)">
<use href="#c2e4"/>
<text class="aa" y="14" textLength="8.4">c</text>
</g>
</g>
<g id="c2r14" class="c2 c">
<use href="#c2e0"/>
<use href="#c2e3"/>
<text class="aa w" y="14" textLength="151.2">$ echo &quot;interactiv</text>
<text class="ac w" x="604.8" y="14" textLength="210">● REC (F9:End, F12:Pause)</text>
</g>
<g id="c2r15" class="c2 c"><use href="#c2r14"/>
<g transform="translate(151.2)">
<use href="#c2e4"/>
<text class="aa" y="14" textLength="8.4">e</text>
</g>
</g>
<g id="c2r16" class="c2 c"><use href="#c2r15"/>
<g transform="translate(168)">
<use href="#c2e4"/>
<text class="aa" y="14" textLength="8.4">c</text>
</g>
</g>
<g id="c2r17" class="c2 c"><use href="#c2r16"/>
<g transform="translate(176.4)">
<use href="#c2e5"/>
<text class="aa" y="14" textLength="16.8">ap</text>
</g>
</g>
<g id="c2r18" class="c2 c"><use href="#c2r17"/>
<g transform="translate(193.2)">
<use href="#c2e5"/>
<text class="aa" y="14" textLength="16.8">tu</text>
</g>
</g>
<g id="c2r19" class="c2 c">
<use href="#c2e0"/>
<use href="#c2e3"/>
<text class="aa w" y="14" textLength="218.4">$ echo &quot;interactive captur</text>
<text class="ac w" x="604.8" y="14" textLength="210">● REC (F9:End, F12:Pause)</text>
</g>
<g id="c2r20" class="c2 c"><use href="#c2r19"/>
<g transform="translate(218.4)">
<use href="#c2e5"/>
<text class="aa" y="14" textLength="16.8">e&quot;</text>
</g>
</g>
<g id="c2r21" class="c2 c">
<use href="#c2e0"/>
<text class="aa w" y="14" textLength="159.6">interactive capture</text>
</g>
<g id="c2r22" class="c2 c">
<use href="#c2e0"/>
<rect class="q" x="756" width="75.6" height="18" id="c2e7" fill="#87D787" stroke="#87D787" stroke-width="2" vector-effect="non-scaling-stroke"/>
<text class="aa w" y="14" textLength="235.2">$ echo &quot;interactive capture&quot;</text>
<text class="ab" x="772.8" y="14" textLength="42">Saved</text>
</g>
<g id="c2r23" class="c2 c"><use href="#c2r1"/>
<g>
<rect width="33.6" height="18" id="c2e8" fill="#1e1e1e" stroke="#1e1e1e" stroke-width="2" vector-effect="non-scaling-stroke"/>
<text class="aa" y="14" textLength="33.6">exit</text>
</g>
</g>
<g id="c2r24" class="c2 c"><use href="#c2r1"/>
<g>
<rect width="117.6" height="18" id="c2e9" fill="#1e1e1e" stroke="#1e1e1e" stroke-width="2" vector-effect="non-scaling-stroke"/>
<text class="aa w" y="14" textLength="117.6">Wait succeeded</text>
</g>
</g>
<g id="c2d0" class="c2">
<use href="#c2r0"/>
<use href="#c2r1" y="18"/>
<use href="#c2r1" y="36"/>
<use href="#c2r1" y="54"/>
<use href="#c2r1" y="72"/>
<use href="#c2r1" y="90"/>
<use href="#c2r1" y="108"/>
<use href="#c2r1" y="126"/>
<use href="#c2r1" y="144"/>
<use href="#c2r1" y="162"/>
<use href="#c2r1" y="180"/>
<use href="#c2r1" y="198"/>
<use href="#c2r1" y="216"/>
<use href="#c2r1" y="234"/>
<use href="#c2r1" y="252"/>
<use href="#c2r1" y="270"/>
<use href="#c2r1" y="288"/>
<use href="#c2r1" y="306"/>
<use href="#c2r1" y="324"/>
<use href="#c2r1" y="342"/>
<rect class="u" x="16.8" width="8.4" height="18" fill="#d4d4d4" opacity="0.65"/>
</g>
<g id="c2d1" class="c2">
<use href="#c2r2"/>
<use href="#c2r1" y="18"/>
<use href="#c2r1" y="36"/>
<use href="#c2r1" y="54"/>
<use href="#c2r1" y="72"/>
<use href="#c2r1" y="90"/>
<use href="#c2r1" y="108"/>
<use href="#c2r1" y="126"/>
<use href="#c2r1" y="144"/>
<use href="#c2r1" y="162"/>
<use href="#c2r1" y="180"/>
<use href="#c2r1" y="198"/>
<use href="#c2r1" y="216"/>
<use href="#c2r1" y="234"/>
<use href="#c2r1" y="252"/>
<use href="#c2r1" y="270"/>
<use href="#c2r1" y="288"/>
<use href="#c2r1" y="306"/>
<use href="#c2r1" y="324"/>
<use href="#c2r1" y="342"/>
<rect class="u" x="16.8" width="8.4" height="18" fill="#d4d4d4" opacity="0.65"/>
</g>
<g id="c2d2" class="c2">
<use href="#c2r3"/>
<use href="#c2r1" y="18"/>
<use href="#c2r1" y="36"/>
<use href="#c2r1" y="54"/>
<use href="#c2r1" y="72"/>
<use href="#c2r1" y="90"/>
<use href="#c2r1" y="108"/>
<use href="#c2r1" y="126"/>
<use href="#c2r1" y="144"/>
<use href="#c2r1" y="162"/>
<use href="#c2r1" y="180"/>
<use href="#c2r1" y="198"/>
<use href="#c2r1" y="216"/>
<use href="#c2r1" y="234"/>
<use href="#c2r1" y="252"/>
<use href="#c2r1" y="270"/>
<use href="#c2r1" y="288"/>
<use href="#c2r1" y="306"/>
<use href="#c2r1" y="324"/>
<use href="#c2r1" y="342"/>
<rect class="u" x="16.8" width="8.4" height="18" fill="#d4d4d4" opacity="0.65"/>
</g>
<g id="c2d3" class="c2">
<use href="#c2r4"/>
<use href="#c2r1" y="18"/>
<use href="#c2r1" y="36"/>
<use href="#c2r1" y="54"/>
<use href="#c2r1" y="72"/>
<use href="#c2r1" y="90"/>
<use href="#c2r1" y="108"/>
<use href="#c2r1" y="126"/>
<use href="#c2r1" y="144"/>
<use href="#c2r1" y="162"/>
<use href="#c2r1" y="180"/>
<use href="#c2r1" y="198"/>
<use href="#c2r1" y="216"/>
<use href="#c2r1" y="234"/>
<use href="#c2r1" y="252"/>
<use href="#c2r1" y="270"/>
<use href="#c2r1" y="288"/>
<use href="#c2r1" y="306"/>
<use href="#c2r1" y="324"/>
<use href="#c2r1" y="342"/>
<rect class="u" x="16.8" width="8.4" height="18" fill="#d4d4d4" opacity="0.65"/>
</g>
<g id="c2d4" class="c2">
<use href="#c2r5"/>
<use href="#c2r1" y="18"/>
<use href="#c2r1" y="36"/>
<use href="#c2r1" y="54"/>
<use href="#c2r1" y="72"/>
<use href="#c2r1" y="90"/>
<use href="#c2r1" y="108"/>
<use href="#c2r1" y="126"/>
<use href="#c2r1" y="144"/>
<use href="#c2r1" y="162"/>
<use href="#c2r1" y="180"/>
<use href="#c2r1" y="198"/>
<use href="#c2r1" y="216"/>
<use href="#c2r1" y="234"/>
<use href="#c2r1" y="252"/>
<use href="#c2r1" y="270"/>
<use href="#c2r1" y="288"/>
<use href="#c2r1" y="306"/>
<use href="#c2r1" y="324"/>
<use href="#c2r1" y="342"/>
<rect class="u" x="25.2" width="8.4" height="18" fill="#d4d4d4" opacity="0.65"/>
</g>
<g id="c2d5" class="c2">
<use href="#c2r6"/>
<use href="#c2r1" y="18"/>
<use href="#c2r1" y="36"/>
<use href="#c2r1" y="54"/>
<use href="#c2r1" y="72"/>
<use href="#c2r1" y="90"/>
<use href="#c2r1" y="108"/>
<use href="#c2r1" y="126"/>
<use href="#c2r1" y="144"/>
<use href="#c2r1" y="162"/>
<use href="#c2r1" y="180"/>
<use href="#c2r1" y="198"/>
<use href="#c2r1" y="216"/>
<use href="#c2r1" y="234"/>
<use href="#c2r1" y="252"/>
<use href="#c2r1" y="270"/>
<use href="#c2r1" y="288"/>
<use href="#c2r1" y="306"/>
<use href="#c2r1" y="324"/>
<use href="#c2r1" y="342"/>
<rect class="u" x="33.6" width="8.4" height="18" fill="#d4d4d4" opacity="0.65"/>
</g>
<g id="c2d6" class="c2">
<use href="#c2r7"/>
<use href="#c2r1" y="18"/>
<use href="#c2r1" y="36"/>
<use href="#c2r1" y="54"/>
<use href="#c2r1" y="72"/>
<use href="#c2r1" y="90"/>
<use href="#c2r1" y="108"/>
<use href="#c2r1" y="126"/>
<use href="#c2r1" y="144"/>
<use href="#c2r1" y="162"/>
<use href="#c2r1" y="180"/>
<use href="#c2r1" y="198"/>
<use href="#c2r1" y="216"/>
<use href="#c2r1" y="234"/>
<use href="#c2r1" y="252"/>
<use href="#c2r1" y="270"/>
<use href="#c2r1" y="288"/>
<use href="#c2r1" y="306"/>
<use href="#c2r1" y="324"/>
<use href="#c2r1" y="342"/>
<rect class="u" x="50.4" width="8.4" height="18" fill="#d4d4d4" opacity="0.65"/>
</g>
<g id="c2d7" class="c2">
<use href="#c2r8"/>
<use href="#c2r1" y="18"/>
<use href="#c2r1" y="36"/>
<use href="#c2r1" y="54"/>
<use href="#c2r1" y="72"/>
<use href="#c2r1" y="90"/>
<use href="#c2r1" y="108"/>
<use href="#c2r1" y="126"/>
<use href="#c2r1" y="144"/>
<use href="#c2r1" y="162"/>
<use href="#c2r1" y="180"/>
<use href="#c2r1" y="198"/>
<use href="#c2r1" y="216"/>
<use href="#c2r1" y="234"/>
<use href="#c2r1" y="252"/>
<use href="#c2r1" y="270"/>
<use href="#c2r1" y="288"/>
<use href="#c2r1" y="306"/>
<use href="#c2r1" y="324"/>
<use href="#c2r1" y="342"/>
<rect class="u" x="67.2" width="8.4" height="18" fill="#d4d4d4" opacity="0.65"/>
</g>
<g id="c2d8" class="c2">
<use href="#c2r9"/>
<use href="#c2r1" y="18"/>
<use href="#c2r1" y="36"/>
<use href="#c2r1" y="54"/>
<use href="#c2r1" y="72"/>
<use href="#c2r1" y="90"/>
<use href="#c2r1" y="108"/>
<use href="#c2r1" y="126"/>
<use href="#c2r1" y="144"/>
<use href="#c2r1" y="162"/>
<use href="#c2r1" y="180"/>
<use href="#c2r1" y="198"/>
<use href="#c2r1" y="216"/>
<use href="#c2r1" y="234"/>
<use href="#c2r1" y="252"/>
<use href="#c2r1" y="270"/>
<use href="#c2r1" y="288"/>
<use href="#c2r1" y="306"/>
<use href="#c2r1" y="324"/>
<use href="#c2r1" y="342"/>
<rect class="u" x="75.6" width="8.4" height="18" fill="#d4d4d4" opacity="0.65"/>
</g>
<g id="c2d9" class="c2">
<use href="#c2r10"/>
<use href="#c2r1" y="18"/>
<use href="#c2r1" y="36"/>
<use href="#c2r1" y="54"/>
<use href="#c2r1" y="72"/>
<use href="#c2r1" y="90"/>
<use href="#c2r1" y="108"/>
<use href="#c2r1" y="126"/>
<use href="#c2r1" y="144"/>
<use href="#c2r1" y="162"/>
<use href="#c2r1" y="180"/>
<use href="#c2r1" y="198"/>
<use href="#c2r1" y="216"/>
<use href="#c2r1" y="234"/>
<use href="#c2r1" y="252"/>
<use href="#c2r1" y="270"/>
<use href="#c2r1" y="288"/>
<use href="#c2r1" y="306"/>
<use href="#c2r1" y="324"/>
<use href="#c2r1" y="342"/>
<rect class="u" x="100.8" width="8.4" height="18" fill="#d4d4d4" opacity="0.65"/>
</g>
<g id="c2d10" class="c2">
<use href="#c2r11"/>
<use href="#c2r1" y="18"/>
<use href="#c2r1" y="36"/>
<use href="#c2r1" y="54"/>
<use href="#c2r1" y="72"/>
<use href="#c2r1" y="90"/>
<use href="#c2r1" y="108"/>
<use href="#c2r1" y="126"/>
<use href="#c2r1" y="144"/>
<use href="#c2r1" y="162"/>
<use href="#c2r1" y="180"/>
<use href="#c2r1" y="198"/>
<use href="#c2r1" y="216"/>
<use href="#c2r1" y="234"/>
<use href="#c2r1" y="252"/>
<use href="#c2r1" y="270"/>
<use href="#c2r1" y="288"/>
<use href="#c2r1" y="306"/>
<use href="#c2r1" y="324"/>
<use href="#c2r1" y="342"/>
<rect class="u" x="109.2" width="8.4" height="18" fill="#d4d4d4" opacity="0.65"/>
</g>
<g id="c2d11" class="c2">
<use href="#c2r12"/>
<use href="#c2r1" y="18"/>
<use href="#c2r1" y="36"/>
<use href="#c2r1" y="54"/>
<use href="#c2r1" y="72"/>
<use href="#c2r1" y="90"/>
<use href="#c2r1" y="108"/>
<use href="#c2r1" y="126"/>
<use href="#c2r1" y="144"/>
<use href="#c2r1" y="162"/>
<use href="#c2r1" y="180"/>
<use href="#c2r1" y="198"/>
<use href="#c2r1" y="216"/>
<use href="#c2r1" y="234"/>
<use href="#c2r1" y="252"/>
<use href="#c2r1" y="270"/>
<use href="#c2r1" y="288"/>
<use href="#c2r1" y="306"/>
<use href="#c2r1" y="324"/>
<use href="#c2r1" y="342"/>
<rect class="u" x="117.6" width="8.4" height="18" fill="#d4d4d4" opacity="0.65"/>
</g>
<g id="c2d12" class="c2">
<use href="#c2r13"/>
<use href="#c2r1" y="18"/>
<use href="#c2r1" y="36"/>
<use href="#c2r1" y="54"/>
<use href="#c2r1" y="72"/>
<use href="#c2r1" y="90"/>
<use href="#c2r1" y="108"/>
<use href="#c2r1" y="126"/>
<use href="#c2r1" y="144"/>
<use href="#c2r1" y="162"/>
<use href="#c2r1" y="180"/>
<use href="#c2r1" y="198"/>
<use href="#c2r1" y="216"/>
<use href="#c2r1" y="234"/>
<use href="#c2r1" y="252"/>
<use href="#c2r1" y="270"/>
<use href="#c2r1" y="288"/>
<use href="#c2r1" y="306"/>
<use href="#c2r1" y="324"/>
<use href="#c2r1" y="342"/>
<rect class="u" x="126" width="8.4" height="18" fill="#d4d4d4" opacity="0.65"/>
</g>
<g id="c2d13" class="c2">
<use href="#c2r14"/>
<use href="#c2r1" y="18"/>
<use href="#c2r1" y="36"/>
<use href="#c2r1" y="54"/>
<use href="#c2r1" y="72"/>
<use href="#c2r1" y="90"/>
<use href="#c2r1" y="108"/>
<use href="#c2r1" y="126"/>
<use href="#c2r1" y="144"/>
<use href="#c2r1" y="162"/>
<use href="#c2r1" y="180"/>
<use href="#c2r1" y="198"/>
<use href="#c2r1" y="216"/>
<use href="#c2r1" y="234"/>
<use href="#c2r1" y="252"/>
<use href="#c2r1" y="270"/>
<use href="#c2r1" y="288"/>
<use href="#c2r1" y="306"/>
<use href="#c2r1" y="324"/>
<use href="#c2r1" y="342"/>
<rect class="u" x="151.2" width="8.4" height="18" fill="#d4d4d4" opacity="0.65"/>
</g>
<g id="c2d14" class="c2">
<use href="#c2r15"/>
<use href="#c2r1" y="18"/>
<use href="#c2r1" y="36"/>
<use href="#c2r1" y="54"/>
<use href="#c2r1" y="72"/>
<use href="#c2r1" y="90"/>
<use href="#c2r1" y="108"/>
<use href="#c2r1" y="126"/>
<use href="#c2r1" y="144"/>
<use href="#c2r1" y="162"/>
<use href="#c2r1" y="180"/>
<use href="#c2r1" y="198"/>
<use href="#c2r1" y="216"/>
<use href="#c2r1" y="234"/>
<use href="#c2r1" y="252"/>
<use href="#c2r1" y="270"/>
<use href="#c2r1" y="288"/>
<use href="#c2r1" y="306"/>
<use href="#c2r1" y="324"/>
<use href="#c2r1" y="342"/>
<rect class="u" x="159.6" width="8.4" height="18" fill="#d4d4d4" opacity="0.65"/>
</g>
<g id="c2d15" class="c2">
<use href="#c2r16"/>
<use href="#c2r1" y="18"/>
<use href="#c2r1" y="36"/>
<use href="#c2r1" y="54"/>
<use href="#c2r1" y="72"/>
<use href="#c2r1" y="90"/>
<use href="#c2r1" y="108"/>
<use href="#c2r1" y="126"/>
<use href="#c2r1" y="144"/>
<use href="#c2r1" y="162"/>
<use href="#c2r1" y="180"/>
<use href="#c2r1" y="198"/>
<use href="#c2r1" y="216"/>
<use href="#c2r1" y="234"/>
<use href="#c2r1" y="252"/>
<use href="#c2r1" y="270"/>
<use href="#c2r1" y="288"/>
<use href="#c2r1" y="306"/>
<use href="#c2r1" y="324"/>
<use href="#c2r1" y="342"/>
<rect class="u" x="176.4" width="8.4" height="18" fill="#d4d4d4" opacity="0.65"/>
</g>
<g id="c2d16" class="c2">
<use href="#c2r17"/>
<use href="#c2r1" y="18"/>
<use href="#c2r1" y="36"/>
<use href="#c2r1" y="54"/>
<use href="#c2r1" y="72"/>
<use href="#c2r1" y="90"/>
<use href="#c2r1" y="108"/>
<use href="#c2r1" y="126"/>
<use href="#c2r1" y="144"/>
<use href="#c2r1" y="162"/>
<use href="#c2r1" y="180"/>
<use href="#c2r1" y="198"/>
<use href="#c2r1" y="216"/>
<use href="#c2r1" y="234"/>
<use href="#c2r1" y="252"/>
<use href="#c2r1" y="270"/>
<use href="#c2r1" y="288"/>
<use href="#c2r1" y="306"/>
<use href="#c2r1" y="324"/>
<use href="#c2r1" y="342"/>
<rect class="u" x="193.2" width="8.4" height="18" fill="#d4d4d4" opacity="0.65"/>
</g>
<g id="c2d17" class="c2">
<use href="#c2r18"/>
<use href="#c2r1" y="18"/>
<use href="#c2r1" y="36"/>
<use href="#c2r1" y="54"/>
<use href="#c2r1" y="72"/>
<use href="#c2r1" y="90"/>
<use href="#c2r1" y="108"/>
<use href="#c2r1" y="126"/>
<use href="#c2r1" y="144"/>
<use href="#c2r1" y="162"/>
<use href="#c2r1" y="180"/>
<use href="#c2r1" y="198"/>
<use href="#c2r1" y="216"/>
<use href="#c2r1" y="234"/>
<use href="#c2r1" y="252"/>
<use href="#c2r1" y="270"/>
<use href="#c2r1" y="288"/>
<use href="#c2r1" y="306"/>
<use href="#c2r1" y="324"/>
<use href="#c2r1" y="342"/>
<rect class="u" x="210" width="8.4" height="18" fill="#d4d4d4" opacity="0.65"/>
</g>
<g id="c2d18" class="c2">
<use href="#c2r19"/>
<use href="#c2r1" y="18"/>
<use href="#c2r1" y="36"/>
<use href="#c2r1" y="54"/>
<use href="#c2r1" y="72"/>
<use href="#c2r1" y="90"/>
<use href="#c2r1" y="108"/>
<use href="#c2r1" y="126"/>
<use href="#c2r1" y="144"/>
<use href="#c2r1" y="162"/>
<use href="#c2r1" y="180"/>
<use href="#c2r1" y="198"/>
<use href="#c2r1" y="216"/>
<use href="#c2r1" y="234"/>
<use href="#c2r1" y="252"/>
<use href="#c2r1" y="270"/>
<use href="#c2r1" y="288"/>
<use href="#c2r1" y="306"/>
<use href="#c2r1" y="324"/>
<use href="#c2r1" y="342"/>
<rect class="u" x="218.4" width="8.4" height="18" fill="#d4d4d4" opacity="0.65"/>
</g>
<g id="c2d19" class="c2">
<use href="#c2r20"/>
<use href="#c2r21" y="18"/>
<use href="#c2r0" y="36"/>
<use href="#c2r1" y="54"/>
<use href="#c2r1" y="72"/>
<use href="#c2r1" y="90"/>
<use href="#c2r1" y="108"/>
<use href="#c2r1" y="126"/>
<use href="#c2r1" y="144"/>
<use href="#c2r1" y="162"/>
<use href="#c2r1" y="180"/>
<use href="#c2r1" y="198"/>
<use href="#c2r1" y="216"/>
<use href="#c2r1" y="234"/>
<use href="#c2r1" y="252"/>
<use href="#c2r1" y="270"/>
<use href="#c2r1" y="288"/>
<use href="#c2r1" y="306"/>
<use href="#c2r1" y="324"/>
<use href="#c2r1" y="342"/>
<rect class="u" x="16.8" y="36" width="8.4" height="18" fill="#d4d4d4" opacity="0.65"/>
</g>
<g id="c2d20" class="c2">
<use href="#c2r22"/>
<use href="#c2r21" y="18"/>
<use href="#c2r0" y="36"/>
<use href="#c2r1" y="54"/>
<use href="#c2r1" y="72"/>
<use href="#c2r1" y="90"/>
<use href="#c2r1" y="108"/>
<use href="#c2r1" y="126"/>
<use href="#c2r1" y="144"/>
<use href="#c2r1" y="162"/>
<use href="#c2r1" y="180"/>
<use href="#c2r1" y="198"/>
<use href="#c2r1" y="216"/>
<use href="#c2r1" y="234"/>
<use href="#c2r1" y="252"/>
<use href="#c2r1" y="270"/>
<use href="#c2r1" y="288"/>
<use href="#c2r1" y="306"/>
<use href="#c2r1" y="324"/>
<use href="#c2r1" y="342"/>
<rect class="u" x="16.8" y="36" width="8.4" height="18" fill="#d4d4d4" opacity="0.65"/>
</g>
<g id="c2d21" class="c2">
<use href="#c2r22"/>
<use href="#c2r21" y="18"/>
<use href="#c2r0" y="36"/>
<use href="#c2r23" y="54"/>
<use href="#c2r24" y="72"/>
<use href="#c2r1" y="90"/>
<use href="#c2r1" y="108"/>
<use href="#c2r1" y="126"/>
<use href="#c2r1" y="144"/>
<use href="#c2r1" y="162"/>
<use href="#c2r1" y="180"/>
<use href="#c2r1" y="198"/>
<use href="#c2r1" y="216"/>
<use href="#c2r1" y="234"/>
<use href="#c2r1" y="252"/>
<use href="#c2r1" y="270"/>
<use href="#c2r1" y="288"/>
<use href="#c2r1" y="306"/>
<use href="#c2r1" y="324"/>
<use href="#c2r1" y="342"/>
<rect class="u" x="117.6" y="90" width="8.4" height="18" fill="#d4d4d4" opacity="0.65"/>
</g>
</defs>
<g transform="translate(9 36)">
<use id="c2f0" href="#c2d0">
<animate attributeName="href" values="#c2d0;#c2d1;#c2d2;#c2d3;#c2d4;#c2d5;#c2d6;#c2d7;#c2d8;#c2d9;#c2d10;#c2d11;#c2d12;#c2d13;#c2d14;#c2d15;#c2d16;#c2d17;#c2d18;#c2d19;#c2d20;#c2d21" keyTimes="0;0.109589;0.191781;0.438356;0.520548;0.534247;0.547945;0.561644;0.575342;0.589041;0.59589;0.60274;0.616438;0.630137;0.643836;0.657534;0.671233;0.684932;0.69863;0.712329;0.739726;0.917808" dur="6.083s" calcMode="discrete" repeatCount="indefinite"/>
</use>
</g>
</svg>