<svg xmlns="http://www.w3.org/2000/svg" xmlns:xlink="http://www.w3.org/1999/xlink" viewBox="0 0 966 291" role="img" aria-label="console2svg output">
<style>.crt{font-family:ui-monospace,"Cascadia Mono","Segoe UI Mono","SFMono-Regular",Menlo,monospace;font-size:14px;}text{dominant-baseline:alphabetic;}</style>
<rect width="966" height="291" fill="#1e2030"/>
<rect x="28" y="28" rx="10" ry="10" width="918" height="243" fill="black" fill-opacity="0.4"/>
<rect x="20.5" y="20.5" rx="10" ry="10" width="917" height="242" fill="#1f1f1f" stroke="#3a3a3a"/>
<rect x="21" y="21" rx="9" ry="9" width="916" height="27" fill="#2c2c2c"/>
<circle cx="34" cy="34" r="5" fill="#ff5f57"/>
<circle cx="50" cy="34" r="5" fill="#febc2e"/>
<circle cx="66" cy="34" r="5" fill="#28c840"/>
<rect x="29" y="74" width="900" height="180" fill="#1e1e1e"/>
<rect x="29" y="56" width="900" height="18" fill="#1e1e1e"/>
<text class="crt" x="29" y="70" fill="#d4d4d4">$ oh-my-logo console2svg mint --filled --letter-spacing 0</text>
<g transform="translate(29 74)">
<rect width="900" height="180" fill="#1e1e1e"/>
<text class="crt" x="9" y="50" fill="#01D1FF">█</text>
<text class="crt" x="18" y="50" fill="#01D0FE">█</text>
<text class="crt" x="27" y="50" fill="#02CFFE">█</text>
<text class="crt" x="36" y="50" fill="#02CEFD">█</text>
<text class="crt" x="45" y="50" fill="#03CDFD">█</text>
<text class="crt" x="54" y="50" fill="#04CCFC">█</text>
<text class="crt" x="63" y="50" fill="#04CBFC">╗</text>
<text class="crt" x="81" y="50" fill="#06CAFB">█</text>
<text class="crt" x="90" y="50" fill="#06C9FA">█</text>
<text class="crt" x="99" y="50" fill="#07C8FA">█</text>
<text class="crt" x="108" y="50" fill="#07C7FA">█</text>
<text class="crt" x="117" y="50" fill="#08C6F9">█</text>
<text class="crt" x="126" y="50" fill="#09C5F9">█</text>
<text class="crt" x="135" y="50" fill="#09C4F8">╗</text>
<text class="crt" x="153" y="50" fill="#0BC2F7">█</text>
<text class="crt" x="162" y="50" fill="#0BC1F7">█</text>
<text class="crt" x="171" y="50" fill="#0CC0F6">█</text>
<text class="crt" x="180" y="50" fill="#0CBFF6">╗</text>
<text class="crt" x="216" y="50" fill="#0FBCF4">█</text>
<text class="crt" x="225" y="50" fill="#10BBF4">█</text>
<text class="crt" x="234" y="50" fill="#10BAF3">╗</text>
<text class="crt" x="243" y="50" fill="#11B9F3">█</text>
<text class="crt" x="252" y="50" fill="#11B8F2">█</text>
<text class="crt" x="261" y="50" fill="#12B7F2">█</text>
<text class="crt" x="270" y="50" fill="#13B6F1">█</text>
<text class="crt" x="279" y="50" fill="#13B5F1">█</text>
<text class="crt" x="288" y="50" fill="#14B4F1">█</text>
<text class="crt" x="297" y="50" fill="#15B3F0">█</text>
<text class="crt" x="306" y="50" fill="#15B2F0">╗</text>
<text class="crt" x="324" y="50" fill="#16B0EF">█</text>
<text class="crt" x="333" y="50" fill="#17AFEE">█</text>
<text class="crt" x="342" y="50" fill="#18AEEE">█</text>
<text class="crt" x="351" y="50" fill="#18AEED">█</text>
<text class="crt" x="360" y="50" fill="#19ADED">█</text>
<text class="crt" x="369" y="50" fill="#1AACEC">█</text>
<text class="crt" x="378" y="50" fill="#1AABEC">╗</text>
<text class="crt" x="396" y="50" fill="#1BA9EB">█</text>
<text class="crt" x="405" y="50" fill="#1CA8EB">█</text>
<text class="crt" x="414" y="50" fill="#1DA7EA">╗</text>
<text class="crt" x="468" y="50" fill="#20A1E8">█</text>
<text class="crt" x="477" y="50" fill="#21A0E7">█</text>
<text class="crt" x="486" y="50" fill="#229FE7">█</text>
<text class="crt" x="495" y="50" fill="#229FE6">█</text>
<text class="crt" x="504" y="50" fill="#239EE6">█</text>
<text class="crt" x="513" y="50" fill="#249DE5">█</text>
<text class="crt" x="522" y="50" fill="#249CE5">█</text>
<text class="crt" x="531" y="50" fill="#259BE4">╗</text>
<text class="crt" x="540" y="50" fill="#259AE4">█</text>
<text class="crt" x="549" y="50" fill="#2699E3">█</text>
<text class="crt" x="558" y="50" fill="#2798E3">█</text>
<text class="crt" x="567" y="50" fill="#2797E3">█</text>
<text class="crt" x="576" y="50" fill="#2896E2">█</text>
<text class="crt" x="585" y="50" fill="#2995E2">█</text>
<text class="crt" x="594" y="50" fill="#2994E1">╗</text>
<text class="crt" x="612" y="50" fill="#2A92E0">█</text>
<text class="crt" x="621" y="50" fill="#2B91E0">█</text>
<text class="crt" x="630" y="50" fill="#2C91DF">█</text>
<text class="crt" x="639" y="50" fill="#2C90DF">█</text>
<text class="crt" x="648" y="50" fill="#2D8FDE">█</text>
<text class="crt" x="657" y="50" fill="#2E8EDE">█</text>
<text class="crt" x="666" y="50" fill="#2E8DDE">█</text>
<text class="crt" x="675" y="50" fill="#2F8CDD">╗</text>
<text class="crt" x="684" y="50" fill="#2F8BDD">█</text>
<text class="crt" x="693" y="50" fill="#308ADC">█</text>
<text class="crt" x="702" y="50" fill="#3189DC">╗</text>
<text class="crt" x="738" y="50" fill="#3385DA">█</text>
<text class="crt" x="747" y="50" fill="#3484DA">█</text>
<text class="crt" x="756" y="50" fill="#3483D9">╗</text>
<text class="crt" x="774" y="50" fill="#3682D8">█</text>
<text class="crt" x="783" y="50" fill="#3681D8">█</text>
<text class="crt" x="792" y="50" fill="#3780D7">█</text>
<text class="crt" x="801" y="50" fill="#387FD7">█</text>
<text class="crt" x="810" y="50" fill="#387ED6">█</text>
<text class="crt" x="819" y="50" fill="#397DD6">█</text>
<text class="crt" x="828" y="50" fill="#397CD5">╗</text>
<text class="crt" x="0" y="68" fill="#00D2FF">█</text>
<text class="crt" x="9" y="68" fill="#01D1FF">█</text>
<text class="crt" x="18" y="68" fill="#01D0FE">╔</text>
<text class="crt" x="27" y="68" fill="#02CFFE">═</text>
<text class="crt" x="36" y="68" fill="#02CEFD">═</text>
<text class="crt" x="45" y="68" fill="#03CDFD">═</text>
<text class="crt" x="54" y="68" fill="#04CCFC">═</text>
<text class="crt" x="63" y="68" fill="#04CBFC">╝</text>
<text class="crt" x="72" y="68" fill="#05CBFB">█</text>
<text class="crt" x="81" y="68" fill="#06CAFB">█</text>
<text class="crt" x="90" y="68" fill="#06C9FA">╔</text>
<text class="crt" x="99" y="68" fill="#07C8FA">═</text>
<text class="crt" x="108" y="68" fill="#07C7FA">═</text>
<text class="crt" x="117" y="68" fill="#08C6F9">═</text>
<text class="crt" x="126" y="68" fill="#09C5F9">█</text>
<text class="crt" x="135" y="68" fill="#09C4F8">█</text>
<text class="crt" x="144" y="68" fill="#0AC3F8">╗</text>
<text class="crt" x="153" y="68" fill="#0BC2F7">█</text>
<text class="crt" x="162" y="68" fill="#0BC1F7">█</text>
<text class="crt" x="171" y="68" fill="#0CC0F6">█</text>
<text class="crt" x="180" y="68" fill="#0CBFF6">█</text>
<text class="crt" x="189" y="68" fill="#0DBEF6">╗</text>
<text class="crt" x="216" y="68" fill="#0FBCF4">█</text>
<text class="crt" x="225" y="68" fill="#10BBF4">█</text>
<text class="crt" x="234" y="68" fill="#10BAF3">║</text>
<text class="crt" x="243" y="68" fill="#11B9F3">█</text>
<text class="crt" x="252" y="68" fill="#11B8F2">█</text>
<text class="crt" x="261" y="68" fill="#12B7F2">╔</text>
<text class="crt" x="270" y="68" fill="#13B6F1">═</text>
<text class="crt" x="279" y="68" fill="#13B5F1">═</text>
<text class="crt" x="288" y="68" fill="#14B4F1">═</text>
<text class="crt" x="297" y="68" fill="#15B3F0">═</text>
<text class="crt" x="306" y="68" fill="#15B2F0">╝</text>
<text class="crt" x="315" y="68" fill="#16B1EF">█</text>
<text class="crt" x="324" y="68" fill="#16B0EF">█</text>
<text class="crt" x="333" y="68" fill="#17AFEE">╔</text>
<text class="crt" x="342" y="68" fill="#18AEEE">═</text>
<text class="crt" x="351" y="68" fill="#18AEED">═</text>
<text class="crt" x="360" y="68" fill="#19ADED">═</text>
<text class="crt" x="369" y="68" fill="#1AACEC">█</text>
<text class="crt" x="378" y="68" fill="#1AABEC">█</text>
<text class="crt" x="387" y="68" fill="#1BAAEC">╗</text>
<text class="crt" x="396" y="68" fill="#1BA9EB">█</text>
<text class="crt" x="405" y="68" fill="#1CA8EB">█</text>
<text class="crt" x="414" y="68" fill="#1DA7EA">║</text>
<text class="crt" x="468" y="68" fill="#20A1E8">█</text>
<text class="crt" x="477" y="68" fill="#21A0E7">█</text>
<text class="crt" x="486" y="68" fill="#229FE7">╔</text>
<text class="crt" x="495" y="68" fill="#229FE6">═</text>
<text class="crt" x="504" y="68" fill="#239EE6">═</text>
<text class="crt" x="513" y="68" fill="#249DE5">═</text>
<text class="crt" x="522" y="68" fill="#249CE5">═</text>
<text class="crt" x="531" y="68" fill="#259BE4">╝</text>
<text class="crt" x="540" y="68" fill="#259AE4">╚</text>
<text class="crt" x="549" y="68" fill="#2699E3">═</text>
<text class="crt" x="558" y="68" fill="#2798E3">═</text>
<text class="crt" x="567" y="68" fill="#2797E3">═</text>
<text class="crt" x="576" y="68" fill="#2896E2">═</text>
<text class="crt" x="585" y="68" fill="#2995E2">█</text>
<text class="crt" x="594" y="68" fill="#2994E1">█</text>
<text class="crt" x="603" y="68" fill="#2A93E1">╗</text>
<text class="crt" x="612" y="68" fill="#2A92E0">█</text>
<text class="crt" x="621" y="68" fill="#2B91E0">█</text>
<text class="crt" x="630" y="68" fill="#2C91DF">╔</text>
<text class="crt" x="639" y="68" fill="#2C90DF">═</text>
<text class="crt" x="648" y="68" fill="#2D8FDE">═</text>
<text class="crt" x="657" y="68" fill="#2E8EDE">═</text>
<text class="crt" x="666" y="68" fill="#2E8DDE">═</text>
<text class="crt" x="675" y="68" fill="#2F8CDD">╝</text>
<text class="crt" x="684" y="68" fill="#2F8BDD">█</text>
<text class="crt" x="693" y="68" fill="#308ADC">█</text>
<text class="crt" x="702" y="68" fill="#3189DC">║</text>
<text class="crt" x="738" y="68" fill="#3385DA">█</text>
<text class="crt" x="747" y="68" fill="#3484DA">█</text>
<text class="crt" x="756" y="68" fill="#3483D9">║</text>
<text class="crt" x="765" y="68" fill="#3582D9">█</text>
<text class="crt" x="774" y="68" fill="#3682D8">█</text>
<text class="crt" x="783" y="68" fill="#3681D8">╔</text>
<text class="crt" x="792" y="68" fill="#3780D7">═</text>
<text class="crt" x="801" y="68" fill="#387FD7">═</text>
<text class="crt" x="810" y="68" fill="#387ED6">═</text>
<text class="crt" x="819" y="68" fill="#397DD6">═</text>
<text class="crt" x="828" y="68" fill="#397CD5">╝</text>
<text class="crt" x="0" y="86" fill="#00D2FF">█</text>
<text class="crt" x="9" y="86" fill="#01D1FF">█</text>
<text class="crt" x="18" y="86" fill="#01D0FE">║</text>
<text class="crt" x="72" y="86" fill="#05CBFB">█</text>
<text class="crt" x="81" y="86" fill="#06CAFB">█</text>
<text class="crt" x="90" y="86" fill="#06C9FA">║</text>
<text class="crt" x="126" y="86" fill="#09C5F9">█</text>
<text class="crt" x="135" y="86" fill="#09C4F8">█</text>
<text class="crt" x="144" y="86" fill="#0AC3F8">║</text>
<text class="crt" x="153" y="86" fill="#0BC2F7">█</text>
<text class="crt" x="162" y="86" fill="#0BC1F7">█</text>
<text class="crt" x="171" y="86" fill="#0CC0F6">╔</text>
<text class="crt" x="180" y="86" fill="#0CBFF6">█</text>
<text class="crt" x="189" y="86" fill="#0DBEF6">█</text>
<text class="crt" x="198" y="86" fill="#0EBDF5">╗</text>
<text class="crt" x="216" y="86" fill="#0FBCF4">█</text>
<text class="crt" x="225" y="86" fill="#10BBF4">█</text>
<text class="crt" x="234" y="86" fill="#10BAF3">║</text>
<text class="crt" x="243" y="86" fill="#11B9F3">█</text>
<text class="crt" x="252" y="86" fill="#11B8F2">█</text>
<text class="crt" x="261" y="86" fill="#12B7F2">█</text>
<text class="crt" x="270" y="86" fill="#13B6F1">█</text>
<text class="crt" x="279" y="86" fill="#13B5F1">█</text>
<text class="crt" x="288" y="86" fill="#14B4F1">█</text>
<text class="crt" x="297" y="86" fill="#15B3F0">█</text>
<text class="crt" x="306" y="86" fill="#15B2F0">╗</text>
<text class="crt" x="315" y="86" fill="#16B1EF">█</text>
<text class="crt" x="324" y="86" fill="#16B0EF">█</text>
<text class="crt" x="333" y="86" fill="#17AFEE">║</text>
<text class="crt" x="369" y="86" fill="#1AACEC">█</text>
<text class="crt" x="378" y="86" fill="#1AABEC">█</text>
<text class="crt" x="387" y="86" fill="#1BAAEC">║</text>
<text class="crt" x="396" y="86" fill="#1BA9EB">█</text>
<text class="crt" x="405" y="86" fill="#1CA8EB">█</text>
<text class="crt" x="414" y="86" fill="#1DA7EA">║</text>
<text class="crt" x="468" y="86" fill="#20A1E8">█</text>
<text class="crt" x="477" y="86" fill="#21A0E7">█</text>
<text class="crt" x="486" y="86" fill="#229FE7">█</text>
<text class="crt" x="495" y="86" fill="#229FE6">█</text>
<text class="crt" x="504" y="86" fill="#239EE6">█</text>
<text class="crt" x="513" y="86" fill="#249DE5">╗</text>
<text class="crt" x="549" y="86" fill="#2699E3">█</text>
<text class="crt" x="558" y="86" fill="#2798E3">█</text>
<text class="crt" x="567" y="86" fill="#2797E3">█</text>
<text class="crt" x="576" y="86" fill="#2896E2">█</text>
<text class="crt" x="585" y="86" fill="#2995E2">█</text>
<text class="crt" x="594" y="86" fill="#2994E1">╔</text>
<text class="crt" x="603" y="86" fill="#2A93E1">╝</text>
<text class="crt" x="612" y="86" fill="#2A92E0">█</text>
<text class="crt" x="621" y="86" fill="#2B91E0">█</text>
<text class="crt" x="630" y="86" fill="#2C91DF">█</text>
<text class="crt" x="639" y="86" fill="#2C90DF">█</text>
<text class="crt" x="648" y="86" fill="#2D8FDE">█</text>
<text class="crt" x="657" y="86" fill="#2E8EDE">█</text>
<text class="crt" x="666" y="86" fill="#2E8DDE">█</text>
<text class="crt" x="675" y="86" fill="#2F8CDD">╗</text>
<text class="crt" x="684" y="86" fill="#2F8BDD">█</text>
<text class="crt" x="693" y="86" fill="#308ADC">█</text>
<text class="crt" x="702" y="86" fill="#3189DC">║</text>
<text class="crt" x="738" y="86" fill="#3385DA">█</text>
<text class="crt" x="747" y="86" fill="#3484DA">█</text>
<text class="crt" x="756" y="86" fill="#3483D9">║</text>
<text class="crt" x="765" y="86" fill="#3582D9">█</text>
<text class="crt" x="774" y="86" fill="#3682D8">█</text>
<text class="crt" x="783" y="86" fill="#3681D8">║</text>
<text class="crt" x="810" y="86" fill="#387ED6">█</text>
<text class="crt" x="819" y="86" fill="#397DD6">█</text>
<text class="crt" x="828" y="86" fill="#397CD5">█</text>
<text class="crt" x="837" y="86" fill="#3A7BD5">╗</text>
<text class="crt" x="0" y="104" fill="#00D2FF">█</text>
<text class="crt" x="9" y="104" fill="#01D1FF">█</text>
<text class="crt" x="18" y="104" fill="#01D0FE">║</text>
<text class="crt" x="72" y="104" fill="#05CBFB">█</text>
<text class="crt" x="81" y="104" fill="#06CAFB">█</text>
<text class="crt" x="90" y="104" fill="#06C9FA">║</text>
<text class="crt" x="126" y="104" fill="#09C5F9">█</text>
<text class="crt" x="135" y="104" fill="#09C4F8">█</text>
<text class="crt" x="144" y="104" fill="#0AC3F8">║</text>
<text class="crt" x="153" y="104" fill="#0BC2F7">█</text>
<text class="crt" x="162" y="104" fill="#0BC1F7">█</text>
<text class="crt" x="171" y="104" fill="#0CC0F6">║</text>
<text class="crt" x="180" y="104" fill="#0CBFF6">╚</text>
<text class="crt" x="189" y="104" fill="#0DBEF6">█</text>
<text class="crt" x="198" y="104" fill="#0EBDF5">█</text>
<text class="crt" x="207" y="104" fill="#0EBCF5">╗</text>
<text class="crt" x="216" y="104" fill="#0FBCF4">█</text>
<text class="crt" x="225" y="104" fill="#10BBF4">█</text>
<text class="crt" x="234" y="104" fill="#10BAF3">║</text>
<text class="crt" x="243" y="104" fill="#11B9F3">╚</text>
<text class="crt" x="252" y="104" fill="#11B8F2">═</text>
<text class="crt" x="261" y="104" fill="#12B7F2">═</text>
<text class="crt" x="270" y="104" fill="#13B6F1">═</text>
<text class="crt" x="279" y="104" fill="#13B5F1">═</text>
<text class="crt" x="288" y="104" fill="#14B4F1">█</text>
<text class="crt" x="297" y="104" fill="#15B3F0">█</text>
<text class="crt" x="306" y="104" fill="#15B2F0">║</text>
<text class="crt" x="315" y="104" fill="#16B1EF">█</text>
<text class="crt" x="324" y="104" fill="#16B0EF">█</text>
<text class="crt" x="333" y="104" fill="#17AFEE">║</text>
<text class="crt" x="369" y="104" fill="#1AACEC">█</text>
<text class="crt" x="378" y="104" fill="#1AABEC">█</text>
<text class="crt" x="387" y="104" fill="#1BAAEC">║</text>
<text class="crt" x="396" y="104" fill="#1BA9EB">█</text>
<text class="crt" x="405" y="104" fill="#1CA8EB">█</text>
<text class="crt" x="414" y="104" fill="#1DA7EA">║</text>
<text class="crt" x="468" y="104" fill="#20A1E8">█</text>
<text class="crt" x="477" y="104" fill="#21A0E7">█</text>
<text class="crt" x="486" y="104" fill="#229FE7">╔</text>
<text class="crt" x="495" y="104" fill="#229FE6">═</text>
<text class="crt" x="504" y="104" fill="#239EE6">═</text>
<text class="crt" x="513" y="104" fill="#249DE5">╝</text>
<text class="crt" x="540" y="104" fill="#259AE4">█</text>
<text class="crt" x="549" y="104" fill="#2699E3">█</text>
<text class="crt" x="558" y="104" fill="#2798E3">╔</text>
<text class="crt" x="567" y="104" fill="#2797E3">═</text>
<text class="crt" x="576" y="104" fill="#2896E2">═</text>
<text class="crt" x="585" y="104" fill="#2995E2">═</text>
<text class="crt" x="594" y="104" fill="#2994E1">╝</text>
<text class="crt" x="612" y="104" fill="#2A92E0">╚</text>
<text class="crt" x="621" y="104" fill="#2B91E0">═</text>
<text class="crt" x="630" y="104" fill="#2C91DF">═</text>
<text class="crt" x="639" y="104" fill="#2C90DF">═</text>
<text class="crt" x="648" y="104" fill="#2D8FDE">═</text>
<text class="crt" x="657" y="104" fill="#2E8EDE">█</text>
<text class="crt" x="666" y="104" fill="#2E8DDE">█</text>
<text class="crt" x="675" y="104" fill="#2F8CDD">║</text>
<text class="crt" x="684" y="104" fill="#2F8BDD">╚</text>
<text class="crt" x="693" y="104" fill="#308ADC">█</text>
<text class="crt" x="702" y="104" fill="#3189DC">█</text>
<text class="crt" x="711" y="104" fill="#3188DB">╗</text>
<text class="crt" x="729" y="104" fill="#3386DA">█</text>
<text class="crt" x="738" y="104" fill="#3385DA">█</text>
<text class="crt" x="747" y="104" fill="#3484DA">╔</text>
<text class="crt" x="756" y="104" fill="#3483D9">╝</text>
<text class="crt" x="765" y="104" fill="#3582D9">█</text>
<text class="crt" x="774" y="104" fill="#3682D8">█</text>
<text class="crt" x="783" y="104" fill="#3681D8">║</text>
<text class="crt" x="819" y="104" fill="#397DD6">█</text>
<text class="crt" x="828" y="104" fill="#397CD5">█</text>
<text class="crt" x="837" y="104" fill="#3A7BD5">║</text>
<text class="crt" x="0" y="122" fill="#00D2FF">╚</text>
<text class="crt" x="9" y="122" fill="#01D1FF">█</text>
<text class="crt" x="18" y="122" fill="#01D0FE">█</text>
<text class="crt" x="27" y="122" fill="#02CFFE">█</text>
<text class="crt" x="36" y="122" fill="#02CEFD">█</text>
<text class="crt" x="45" y="122" fill="#03CDFD">█</text>
<text class="crt" x="54" y="122" fill="#04CCFC">█</text>
<text class="crt" x="63" y="122" fill="#04CBFC">╗</text>
<text class="crt" x="72" y="122" fill="#05CBFB">╚</text>
<text class="crt" x="81" y="122" fill="#06CAFB">█</text>
<text class="crt" x="90" y="122" fill="#06C9FA">█</text>
<text class="crt" x="99" y="122" fill="#07C8FA">█</text>
<text class="crt" x="108" y="122" fill="#07C7FA">█</text>
<text class="crt" x="117" y="122" fill="#08C6F9">█</text>
<text class="crt" x="126" y="122" fill="#09C5F9">█</text>
<text class="crt" x="135" y="122" fill="#09C4F8">╔</text>
<text class="crt" x="144" y="122" fill="#0AC3F8">╝</text>
<text class="crt" x="153" y="122" fill="#0BC2F7">█</text>
<text class="crt" x="162" y="122" fill="#0BC1F7">█</text>
<text class="crt" x="171" y="122" fill="#0CC0F6">║</text>
<text class="crt" x="189" y="122" fill="#0DBEF6">╚</text>
<text class="crt" x="198" y="122" fill="#0EBDF5">█</text>
<text class="crt" x="207" y="122" fill="#0EBCF5">█</text>
<text class="crt" x="216" y="122" fill="#0FBCF4">█</text>
<text class="crt" x="225" y="122" fill="#10BBF4">█</text>
<text class="crt" x="234" y="122" fill="#10BAF3">║</text>
<text class="crt" x="243" y="122" fill="#11B9F3">█</text>
<text class="crt" x="252" y="122" fill="#11B8F2">█</text>
<text class="crt" x="261" y="122" fill="#12B7F2">█</text>
<text class="crt" x="270" y="122" fill="#13B6F1">█</text>
<text class="crt" x="279" y="122" fill="#13B5F1">█</text>
<text class="crt" x="288" y="122" fill="#14B4F1">█</text>
<text class="crt" x="297" y="122" fill="#15B3F0">█</text>
<text class="crt" x="306" y="122" fill="#15B2F0">║</text>
<text class="crt" x="315" y="122" fill="#16B1EF">╚</text>
<text class="crt" x="324" y="122" fill="#16B0EF">█</text>
<text class="crt" x="333" y="122" fill="#17AFEE">█</text>
<text class="crt" x="342" y="122" fill="#18AEEE">█</text>
<text class="crt" x="351" y="122" fill="#18AEED">█</text>
<text class="crt" x="360" y="122" fill="#19ADED">█</text>
<text class="crt" x="369" y="122" fill="#1AACEC">█</text>
<text class="crt" x="378" y="122" fill="#1AABEC">╔</text>
<text class="crt" x="387" y="122" fill="#1BAAEC">╝</text>
<text class="crt" x="396" y="122" fill="#1BA9EB">█</text>
<text class="crt" x="405" y="122" fill="#1CA8EB">█</text>
<text class="crt" x="414" y="122" fill="#1DA7EA">█</text>
<text class="crt" x="423" y="122" fill="#1DA6EA">█</text>
<text class="crt" x="432" y="122" fill="#1EA5E9">█</text>
<text class="crt" x="441" y="122" fill="#1FA4E9">█</text>
<text class="crt" x="450" y="122" fill="#1FA3E8">█</text>
<text class="crt" x="459" y="122" fill="#20A2E8">╗</text>
<text class="crt" x="468" y="122" fill="#20A1E8">█</text>
<text class="crt" x="477" y="122" fill="#21A0E7">█</text>
<text class="crt" x="486" y="122" fill="#229FE7">█</text>
<text class="crt" x="495" y="122" fill="#229FE6">█</text>
<text class="crt" x="504" y="122" fill="#239EE6">█</text>
<text class="crt" x="513" y="122" fill="#249DE5">█</text>
<text class="crt" x="522" y="122" fill="#249CE5">█</text>
<text class="crt" x="531" y="122" fill="#259BE4">╗</text>
<text class="crt" x="540" y="122" fill="#259AE4">█</text>
<text class="crt" x="549" y="122" fill="#2699E3">█</text>
<text class="crt" x="558" y="122" fill="#2798E3">█</text>
<text class="crt" x="567" y="122" fill="#2797E3">█</text>
<text class="crt" x="576" y="122" fill="#2896E2">█</text>
<text class="crt" x="585" y="122" fill="#2995E2">█</text>
<text class="crt" x="594" y="122" fill="#2994E1">█</text>
<text class="crt" x="603" y="122" fill="#2A93E1">╗</text>
<text class="crt" x="612" y="122" fill="#2A92E0">█</text>
<text class="crt" x="621" y="122" fill="#2B91E0">█</text>
<text class="crt" x="630" y="122" fill="#2C91DF">█</text>
<text class="crt" x="639" y="122" fill="#2C90DF">█</text>
<text class="crt" x="648" y="122" fill="#2D8FDE">█</text>
<text class="crt" x="657" y="122" fill="#2E8EDE">█</text>
<text class="crt" x="666" y="122" fill="#2E8DDE">█</text>
<text class="crt" x="675" y="122" fill="#2F8CDD">║</text>
<text class="crt" x="693" y="122" fill="#308ADC">╚</text>
<text class="crt" x="702" y="122" fill="#3189DC">█</text>
<text class="crt" x="711" y="122" fill="#3188DB">█</text>
<text class="crt" x="720" y="122" fill="#3287DB">█</text>
<text class="crt" x="729" y="122" fill="#3386DA">█</text>
<text class="crt" x="738" y="122" fill="#3385DA">╔</text>
<text class="crt" x="747" y="122" fill="#3484DA">╝</text>
<text class="crt" x="765" y="122" fill="#3582D9">╚</text>
<text class="crt" x="774" y="122" fill="#3682D8">█</text>
<text class="crt" x="783" y="122" fill="#3681D8">█</text>
<text class="crt" x="792" y="122" fill="#3780D7">█</text>
<text class="crt" x="801" y="122" fill="#387FD7">█</text>
<text class="crt" x="810" y="122" fill="#387ED6">█</text>
<text class="crt" x="819" y="122" fill="#397DD6">█</text>
<text class="crt" x="828" y="122" fill="#397CD5">╔</text>
<text class="crt" x="837" y="122" fill="#3A7BD5">╝</text>
<text class="crt" x="9" y="140" fill="#01D1FF">╚</text>
<text class="crt" x="18" y="140" fill="#01D0FE">═</text>
<text class="crt" x="27" y="140" fill="#02CFFE">═</text>
<text class="crt" x="36" y="140" fill="#02CEFD">═</text>
<text class="crt" x="45" y="140" fill="#03CDFD">═</text>
<text class="crt" x="54" y="140" fill="#04CCFC">═</text>
<text class="crt" x="63" y="140" fill="#04CBFC">╝</text>
<text class="crt" x="81" y="140" fill="#06CAFB">╚</text>
<text class="crt" x="90" y="140" fill="#06C9FA">═</text>
<text class="crt" x="99" y="140" fill="#07C8FA">═</text>
<text class="crt" x="108" y="140" fill="#07C7FA">═</text>
<text class="crt" x="117" y="140" fill="#08C6F9">═</text>
<text class="crt" x="126" y="140" fill="#09C5F9">═</text>
<text class="crt" x="135" y="140" fill="#09C4F8">╝</text>
<text class="crt" x="153" y="140" fill="#0BC2F7">╚</text>
<text class="crt" x="162" y="140" fill="#0BC1F7">═</text>
<text class="crt" x="171" y="140" fill="#0CC0F6">╝</text>
<text class="crt" x="198" y="140" fill="#0EBDF5">╚</text>
<text class="crt" x="207" y="140" fill="#0EBCF5">═</text>
<text class="crt" x="216" y="140" fill="#0FBCF4">═</text>
<text class="crt" x="225" y="140" fill="#10BBF4">═</text>
<text class="crt" x="234" y="140" fill="#10BAF3">╝</text>
<text class="crt" x="243" y="140" fill="#11B9F3">╚</text>
<text class="crt" x="252" y="140" fill="#11B8F2">═</text>
<text class="crt" x="261" y="140" fill="#12B7F2">═</text>
<text class="crt" x="270" y="140" fill="#13B6F1">═</text>
<text class="crt" x="279" y="140" fill="#13B5F1">═</text>
<text class="crt" x="288" y="140" fill="#14B4F1">═</text>
<text class="crt" x="297" y="140" fill="#15B3F0">═</text>
<text class="crt" x="306" y="140" fill="#15B2F0">╝</text>
<text class="crt" x="324" y="140" fill="#16B0EF">╚</text>
<text class="crt" x="333" y="140" fill="#17AFEE">═</text>
<text class="crt" x="342" y="140" fill="#18AEEE">═</text>
<text class="crt" x="351" y="140" fill="#18AEED">═</text>
<text class="crt" x="360" y="140" fill="#19ADED">═</text>
<text class="crt" x="369" y="140" fill="#1AACEC">═</text>
<text class="crt" x="378" y="140" fill="#1AABEC">╝</text>
<text class="crt" x="396" y="140" fill="#1BA9EB">╚</text>
<text class="crt" x="405" y="140" fill="#1CA8EB">═</text>
<text class="crt" x="414" y="140" fill="#1DA7EA">═</text>
<text class="crt" x="423" y="140" fill="#1DA6EA">═</text>
<text class="crt" x="432" y="140" fill="#1EA5E9">═</text>
<text class="crt" x="441" y="140" fill="#1FA4E9">═</text>
<text class="crt" x="450" y="140" fill="#1FA3E8">═</text>
<text class="crt" x="459" y="140" fill="#20A2E8">╝</text>
<text class="crt" x="468" y="140" fill="#20A1E8">╚</text>
<text class="crt" x="477" y="140" fill="#21A0E7">═</text>
<text class="crt" x="486" y="140" fill="#229FE7">═</text>
<text class="crt" x="495" y="140" fill="#229FE6">═</text>
<text class="crt" x="504" y="140" fill="#239EE6">═</text>
<text class="crt" x="513" y="140" fill="#249DE5">═</text>
<text class="crt" x="522" y="140" fill="#249CE5">═</text>
<text class="crt" x="531" y="140" fill="#259BE4">╝</text>
<text class="crt" x="540" y="140" fill="#259AE4">╚</text>
<text class="crt" x="549" y="140" fill="#2699E3">═</text>
<text class="crt" x="558" y="140" fill="#2798E3">═</text>
<text class="crt" x="567" y="140" fill="#2797E3">═</text>
<text class="crt" x="576" y="140" fill="#2896E2">═</text>
<text class="crt" x="585" y="140" fill="#2995E2">═</text>
<text class="crt" x="594" y="140" fill="#2994E1">═</text>
<text class="crt" x="603" y="140" fill="#2A93E1">╝</text>
<text class="crt" x="612" y="140" fill="#2A92E0">╚</text>
<text class="crt" x="621" y="140" fill="#2B91E0">═</text>
<text class="crt" x="630" y="140" fill="#2C91DF">═</text>
<text class="crt" x="639" y="140" fill="#2C90DF">═</text>
<text class="crt" x="648" y="140" fill="#2D8FDE">═</text>
<text class="crt" x="657" y="140" fill="#2E8EDE">═</text>
<text class="crt" x="666" y="140" fill="#2E8DDE">═</text>
<text class="crt" x="675" y="140" fill="#2F8CDD">╝</text>
<text class="crt" x="702" y="140" fill="#3189DC">╚</text>
<text class="crt" x="711" y="140" fill="#3188DB">═</text>
<text class="crt" x="720" y="140" fill="#3287DB">═</text>
<text class="crt" x="729" y="140" fill="#3386DA">═</text>
<text class="crt" x="738" y="140" fill="#3385DA">╝</text>
<text class="crt" x="774" y="140" fill="#3682D8">╚</text>
<text class="crt" x="783" y="140" fill="#3681D8">═</text>
<text class="crt" x="792" y="140" fill="#3780D7">═</text>
<text class="crt" x="801" y="140" fill="#387FD7">═</text>
<text class="crt" x="810" y="140" fill="#387ED6">═</text>
<text class="crt" x="819" y="140" fill="#397DD6">═</text>
<text class="crt" x="828" y="140" fill="#397CD5">╝</text>
</g>
</svg>